<svg width="3288" height="3288" viewBox="0 0 3288 3288" fill="none" xmlns="http://www.w3.org/2000/svg">
<path d="M1362.69 584.533H1943.57L2009.33 595.493L2064.13 617.413L2104.32 642.987L2140.85 675.867L2173.73 712.4L2202.96 763.547L2221.23 811.04L2228.53 851.227V931.6L2213.92 990.053L2192 1041.2L2155.47 1092.35L2122.59 1125.23L2107.97 1136.19V1143.49L2155.47 1176.37L2199.31 1216.56L2239.49 1267.71L2272.37 1326.16L2290.64 1384.61L2294.29 1413.84V1494.21L2286.99 1552.67L2268.72 1611.12L2235.84 1669.57L2202.96 1709.76L2162.77 1742.64L2115.28 1771.87L2053.17 1801.09L1987.41 1823.01L1918 1837.63L1848.59 1844.93H1180.03L1158.11 1830.32L1154.45 1826.67V1808.4L1172.72 1786.48L1234.83 1742.64L1293.28 1706.11L1373.65 1658.61L1461.33 1603.81L1472.29 1589.2L1479.6 1567.28L1483.25 1541.71V1300.59L1468.64 1296.93L1479.6 1264.05L1483.25 1238.48V993.707L1468.64 990.053L1483.25 942.56V683.173L1391.92 727.013L1311.55 770.853L1264.05 803.733L1256.75 800.08L1300.59 727.013L1337.12 661.253L1355.39 617.413L1362.69 584.533ZM1600.16 767.2V1066.77H1753.6L1801.09 1055.81L1852.24 1030.24L1877.81 1004.67L1892.43 964.48V869.493L1877.81 832.96L1855.89 803.733L1837.63 789.12L1797.44 774.507L1753.6 767.2H1600.16ZM1600.16 1256.75V1654.96L1607.47 1658.61H1782.83L1844.93 1644L1896.08 1618.43L1925.31 1589.2L1943.57 1559.97L1954.53 1527.09L1958.19 1505.17V1399.23L1947.23 1355.39L1925.31 1318.85L1896.08 1289.63L1859.55 1271.36L1804.75 1256.75H1600.16Z" fill="white"/>
<path d="M621.067 2217.57H876.801L906.027 2228.53L931.601 2257.76L942.561 2283.33V2330.83L927.947 2360.05L916.987 2371.01H909.681L913.334 2385.63L946.214 2418.51L960.827 2444.08L964.481 2462.35V2498.88L949.867 2535.41L927.947 2560.99L887.761 2582.91L847.574 2590.21H657.601L653.947 2250.45L635.681 2243.15L617.414 2228.53L621.067 2217.57ZM748.934 2268.72L745.281 2338.13L748.934 2360.05L770.854 2363.71L814.694 2360.05L836.614 2345.44L847.574 2323.52L840.267 2286.99L822.001 2272.37L814.694 2268.72H748.934ZM748.934 2414.85V2535.41L752.587 2539.07H811.041L843.921 2528.11L862.187 2506.19L865.841 2462.35L854.881 2433.12L832.961 2418.51L822.001 2414.85H748.934Z" fill="white"/>
<path d="M1033.89 2217.57H1275.01L1311.55 2228.53L1340.77 2246.8L1359.04 2272.37L1366.35 2294.29V2338.13L1351.73 2371.01L1326.16 2400.24L1307.89 2411.2L1315.2 2429.47L1362.69 2495.23L1391.92 2535.41L1424.8 2582.91L1421.15 2590.21H1318.85L1289.63 2550.03L1223.87 2451.39L1201.95 2447.73L1161.76 2451.39L1165.41 2590.21L1074.08 2593.87L1070.43 2590.21L1066.77 2257.76L1055.81 2246.8L1033.89 2232.19L1030.24 2221.23L1033.89 2217.57ZM1161.76 2272.37V2381.97L1165.41 2389.28H1198.29L1245.79 2374.67L1271.36 2352.75L1275.01 2341.79V2301.6L1260.4 2279.68L1242.13 2272.37H1161.76Z" fill="white"/>
<path d="M1607.47 2217.57H1742.64L1771.87 2290.64L1812.05 2392.93L1866.85 2531.76L1885.12 2564.64L1899.73 2579.25V2590.21H1746.29V2575.6L1764.56 2553.68L1760.91 2528.11L1749.95 2502.53L1622.08 2498.88L1611.12 2531.76L1614.77 2553.68L1636.69 2575.6V2590.21H1494.21L1501.52 2575.6L1530.75 2546.37L1559.97 2476.96L1622.08 2316.21L1640.35 2268.72L1636.69 2254.11L1603.81 2228.53L1607.47 2217.57ZM1684.19 2323.52L1662.27 2378.32L1644 2436.77V2444.08L1717.07 2447.73L1731.68 2444.08L1724.37 2411.2L1698.8 2338.13L1691.49 2323.52H1684.19Z" fill="white"/>
<path d="M2100.67 2210.27H2137.2L2224.88 2217.57L2246.8 2210.27L2257.76 2286.99V2323.52L2239.49 2319.87L2213.92 2294.29L2177.39 2272.37L2122.59 2265.07L2089.71 2272.37L2075.09 2279.68L2067.79 2290.64V2319.87L2082.4 2341.79L2118.93 2356.4L2184.69 2371.01L2232.19 2389.28L2261.41 2414.85L2276.03 2440.43L2279.68 2458.69V2506.19L2265.07 2542.72L2239.49 2571.95L2195.65 2593.87L2144.51 2601.17L2086.05 2593.87L2023.95 2579.25L2002.03 2597.52L1987.41 2593.87L1980.11 2564.64L1976.45 2531.76V2455.04L1991.07 2462.35L2034.91 2509.84L2067.79 2531.76L2093.36 2539.07H2162.77L2181.04 2528.11L2188.35 2517.15V2480.61L2173.73 2462.35L2133.55 2447.73L2067.79 2433.12L2031.25 2418.51L1998.37 2389.28L1983.76 2360.05L1980.11 2345.44V2305.25L1991.07 2268.72L2016.64 2239.49L2049.52 2221.23L2071.44 2213.92L2100.67 2210.27Z" fill="white"/>
<path d="M2487.92 2210.27H2528.11L2593.87 2217.57L2619.44 2213.92H2634.05L2645.01 2279.68L2648.67 2323.52L2630.4 2319.87L2586.56 2283.33L2550.03 2268.72H2487.92L2462.35 2279.68L2455.04 2290.64V2316.21L2466 2334.48L2484.27 2349.09L2571.95 2371.01L2619.44 2389.28L2655.97 2422.16L2666.93 2451.39L2670.59 2484.27L2663.28 2524.45L2641.36 2557.33L2615.79 2579.25L2568.29 2597.52H2491.57L2418.51 2579.25L2403.89 2586.56L2392.93 2597.52L2374.67 2593.87L2363.71 2520.8V2455.04L2378.32 2458.69L2411.2 2498.88L2444.08 2524.45L2466 2535.41L2480.61 2539.07H2553.68L2571.95 2524.45L2579.25 2509.84V2484.27L2568.29 2466L2535.41 2451.39L2462.35 2436.77L2403.89 2407.55L2378.32 2378.32L2371.01 2360.05L2367.36 2312.56L2374.67 2279.68L2396.59 2246.8L2436.77 2221.23L2458.69 2213.92L2487.92 2210.27Z" fill="white"/>
<path d="M1439.41 745.28L1446.72 748.933V909.68L1443.07 949.867L1428.45 971.787L1359.04 1015.63L1275.01 1063.12L1256.75 1070.43L1253.09 1055.81V906.027L1256.75 865.84L1278.67 840.267L1348.08 796.427L1428.45 752.587L1439.41 745.28Z" fill="white"/>
<path d="M1435.76 1052.16L1446.72 1055.81V1183.68L1443.07 1253.09L1435.76 1271.36L1380.96 1307.89L1304.24 1351.73L1267.71 1373.65L1253.09 1370V1205.6L1256.75 1169.07L1275.01 1150.8L1315.2 1121.57L1380.96 1085.04L1432.11 1055.81L1435.76 1052.16Z" fill="white"/>
<path d="M1435.76 1359.04H1443.07L1446.72 1370V1494.21L1443.07 1559.97L1428.45 1581.89L1370 1618.43L1267.71 1676.88L1256.75 1680.53L1253.09 1676.88V1505.17L1256.75 1472.29L1275.01 1454.03L1329.81 1417.49L1410.19 1373.65L1435.76 1359.04Z" fill="white"/>
<path d="M993.707 748.933L1008.32 752.587L1085.04 792.773L1154.45 836.613L1180.03 858.533L1183.68 869.493L1187.33 1066.77L1176.37 1070.43L1085.04 1019.28L1022.93 979.093L997.36 957.173L993.707 946.213V748.933Z" fill="white"/>
<path d="M997.36 1052.16L1048.51 1077.73L1136.19 1128.88L1176.37 1158.11L1183.68 1172.72L1187.33 1370L1172.72 1373.65L1106.96 1337.12L1033.89 1293.28L1001.01 1267.71L993.707 1234.83V1063.12L997.36 1052.16Z" fill="white"/>
<path d="M1216.56 409.173L1231.17 423.787L1293.28 529.733L1318.85 580.88L1315.2 613.76L1285.97 672.213L1242.13 748.933L1223.87 781.813L1205.6 763.547L1161.76 690.48L1125.23 624.72L1117.92 606.453V584.533L1147.15 522.427L1201.95 431.093L1216.56 409.173Z" fill="white"/>
<path d="M997.36 1359.04L1019.28 1366.35L1085.04 1402.88L1150.8 1443.07L1180.03 1468.64L1183.68 1475.95L1187.33 1676.88H1172.72L1085.04 1629.39L1022.93 1589.2L1004.67 1574.59L997.36 1563.63L993.707 1527.09V1391.92L997.36 1359.04Z" fill="white"/>
<path d="M2159.12 2758.27L2188.35 2761.92L2206.61 2791.15L2235.84 2816.72L2243.15 2820.37L2239.49 2761.92L2243.15 2758.27H2265.07L2268.72 2776.53V2860.56L2272.37 2875.17L2246.8 2878.83L2239.49 2875.17L2228.53 2849.6L2206.61 2831.33L2188.35 2813.07V2875.17L2184.69 2878.83H2162.77L2155.47 2871.52L2159.12 2860.56V2758.27Z" fill="white"/>
<path d="M1311.55 2758.27L1340.77 2761.92L1351.73 2783.84L1384.61 2816.72L1395.57 2820.37L1391.92 2761.92L1395.57 2758.27H1417.49L1421.15 2769.23V2875.17L1417.49 2878.83L1391.92 2875.17L1380.96 2849.6L1355.39 2827.68V2820.37L1340.77 2813.07V2875.17L1337.12 2878.83H1315.2L1311.55 2875.17V2758.27Z" fill="white"/>
<path d="M2020.29 2758.27H2053.17L2075.09 2769.23L2089.71 2787.49L2097.01 2805.76V2831.33L2086.05 2856.91L2064.13 2875.17L2027.6 2882.48L2005.68 2875.17L1987.41 2860.56L1976.45 2838.64V2798.45L1991.07 2772.88L2005.68 2761.92L2020.29 2758.27ZM2027.6 2772.88L2009.33 2791.15L2002.03 2813.07L2009.33 2849.6L2020.29 2860.56L2042.21 2864.21L2060.48 2849.6L2067.79 2831.33V2805.76L2056.83 2783.84L2042.21 2772.88H2027.6Z" fill="white"/>
<path d="M1019.28 2758.27H1044.85L1048.51 2761.92L1052.16 2802.11L1066.77 2798.45L1088.69 2765.57L1106.96 2758.27H1128.88V2769.23L1106.96 2783.84L1092.35 2798.45L1099.65 2816.72L1125.23 2856.91L1136.19 2867.87V2878.83H1110.61L1092.35 2860.56L1066.77 2824.03L1052.16 2820.37V2849.6L1048.51 2875.17L1030.24 2878.83L1022.93 2875.17L1019.28 2758.27Z" fill="white"/>
<path d="M1523.44 2758.27H1559.97L1589.2 2761.92L1592.85 2791.15L1585.55 2798.45L1567.28 2780.19L1534.4 2776.53L1516.13 2794.8L1512.48 2805.76V2831.33L1523.44 2853.25L1538.05 2860.56H1559.97V2820.37H1589.2L1592.85 2824.03V2875.17L1585.55 2878.83H1519.79L1497.87 2864.21L1486.91 2849.6L1483.25 2838.64V2794.8L1497.87 2772.88L1512.48 2761.92L1523.44 2758.27Z" fill="white"/>
<path d="M1684.19 2758.27H1720.72L1746.29 2765.57L1749.95 2783.84L1738.99 2787.49L1717.07 2776.53H1684.19L1687.84 2802.11L1717.07 2805.76L1746.29 2820.37L1753.6 2834.99L1749.95 2860.56L1728.03 2878.83H1684.19L1662.27 2871.52L1654.96 2856.91V2834.99L1684.19 2856.91L1695.15 2860.56H1720.72L1724.37 2834.99L1684.19 2827.68L1662.27 2813.07L1658.61 2787.49L1673.23 2765.57L1684.19 2758.27Z" fill="white"/>
<path d="M1815.71 2758.27H1903.39L1918 2765.57L1921.65 2776.53L1918 2780.19L1877.81 2776.53L1881.47 2875.17L1877.81 2878.83H1852.24L1841.28 2867.87L1848.59 2860.56V2780.19L1808.4 2783.84L1812.05 2761.92L1815.71 2758.27Z" fill="white"/>
<path d="M1201.95 2758.27H1231.17L1234.83 2776.53V2871.52L1227.52 2878.83L1205.6 2875.17L1201.95 2758.27Z" fill="white"/>
</svg>
