<svg width="3887" height="1298" viewBox="0 0 3887 1298" fill="none" xmlns="http://www.w3.org/2000/svg">
<path d="M360.61 492.41H590.262L594.058 498.104L601.65 536.065L618.731 608.192L641.507 703.095L660.486 782.814L669.976 835.96L671.874 839.756L677.568 799.896L692.751 731.566L704.139 684.114L734.506 556.944L749.69 496.206L751.588 494.308L857.873 492.41H979.342L983.138 494.308V1031.46L981.24 1033.36H825.608L823.71 1031.46V725.872L827.506 680.318V663.236L816.118 704.993L800.935 773.323L778.159 866.329L759.18 946.047L738.302 1031.46L736.404 1033.36H607.344L603.548 1029.56L582.67 942.251L559.895 849.246L527.63 714.483L514.344 659.439V655.643H510.548L512.446 659.439L518.14 723.974V1033.36H360.61L358.712 1031.46L356.814 1014.38V507.594L358.712 494.308L360.61 492.41Z" fill="white"/>
<path d="M3057.6 602.498L3220.82 604.396L3243.6 640.459L3272.06 686.012L3292.94 718.28L3321.41 763.833L3338.49 796.1L3347.98 816.979V799.896L3346.08 786.61V604.396H3473.25V1031.46L3471.35 1033.36H3344.19L3332.8 1016.28L3306.23 972.62L3279.66 930.863L3249.29 881.513L3220.82 835.96L3199.94 801.795L3182.86 769.527L3184.76 826.469V1029.56L3179.07 1033.36H3055.7L3053.8 892.902V699.299L3055.7 604.396L3057.6 602.498Z" fill="white"/>
<path d="M1497.48 604.396H1662.6L1675.89 623.376L1729.03 706.891L1757.5 752.445L1768.89 771.425L1789.77 813.183V816.979H1793.56L1791.66 811.285L1789.77 786.61V604.396H1916.93V1033.36H1785.97L1763.2 995.397L1734.73 949.844L1704.36 900.494L1647.42 809.387L1628.44 775.221L1626.54 765.731H1622.75L1624.65 769.527L1626.54 788.508V1033.36H1499.38L1497.48 965.028V604.396Z" fill="white"/>
<path d="M1108.4 604.396H1374.12L1394.99 610.09L1412.07 617.682L1427.26 629.07L1440.54 648.051L1446.24 665.134L1448.14 674.624V1031.46L1446.24 1033.36H1317.18L1315.28 1031.46L1313.38 862.533L1167.24 860.634V1033.36H1036.28L1034.38 1018.17V680.318L1038.18 661.337L1045.77 644.255L1059.06 627.172L1078.04 613.886L1098.91 606.294L1108.4 604.396ZM1167.24 720.178V773.323H1313.38L1315.28 758.139V720.178H1167.24Z" fill="white"/>
<path d="M2055.48 604.396H2342.07L2343.97 606.294V716.381L2342.07 720.178H2097.23V765.731H2252.87L2300.31 767.629L2323.09 773.323L2343.97 784.712L2357.25 799.896L2364.85 815.081L2370.54 835.96V959.334L2366.74 982.111L2355.36 1002.99L2338.27 1018.17L2319.29 1027.66L2306.01 1031.46L2283.23 1033.36H1962.48L1960.58 1027.66V917.576L1964.38 915.678H2239.58L2237.68 870.125H2087.74L2040.3 868.227L2002.34 862.533L1987.15 853.042L1973.87 837.858L1966.28 818.877L1964.38 809.387V668.93L1970.07 648.051L1977.66 636.663L1987.15 625.274L2006.13 613.886L2036.5 606.294L2055.48 604.396Z" fill="white"/>
<path d="M2685.6 604.396H2924.74L2949.41 610.09L2970.29 621.478L2981.68 630.968L2994.96 649.949L3002.56 668.93L3008.25 695.503V934.659L3002.56 966.926L2994.96 984.009L2983.58 1001.09L2968.39 1016.28L2945.62 1027.66L2932.33 1031.46L2915.25 1033.36H2693.19L2668.52 1029.56L2649.54 1021.97L2632.46 1008.68L2619.17 993.499L2607.78 968.824L2602.09 942.251L2600.19 908.086V756.241L2602.09 687.91L2611.58 657.541L2619.17 642.357L2632.46 627.172L2651.44 613.886L2674.21 606.294L2685.6 604.396ZM2734.94 720.178L2736.84 915.678L2871.6 917.576L2873.5 915.678L2875.39 722.076L2873.5 720.178H2734.94Z" fill="white"/>
<path d="M1322.87 91.9175H1434.85L1436.75 93.8155L1438.65 120.388L1444.34 124.185L1446.24 156.452V179.229L1434.85 184.923L1432.95 310.195V405.098L1446.24 403.2L1522.16 380.424L1575.3 363.341L1774.58 302.603L2061.17 215.292L2112.42 200.107H2180.74L2195.93 186.821L2213.01 169.738L2243.38 150.758L2279.44 133.675L2321.19 120.388L2362.95 110.898L2416.09 103.306H2480.62L2531.86 110.898L2564.13 118.49L2600.19 131.777L2630.56 146.961L2655.23 165.942L2672.31 184.923L2681.8 198.209L2767.21 200.107L2848.82 226.68L3015.84 283.622L3084.17 306.399L3207.53 348.156L3385.94 408.895V183.025L3372.66 181.127L3370.76 179.229V158.35L3372.66 127.981L3382.15 118.49L3384.04 93.8155L3385.94 91.9175H3499.82L3501.72 116.592L3509.31 126.083V181.127L3497.92 184.923L3496.02 412.691L3509.31 414.589L3511.21 450.652L3530.19 458.244L3647.86 498.104L3682.02 509.492L3680.12 517.084L3666.84 530.371L3653.55 545.555L3632.67 566.434L3630.78 570.23H3626.98L3623.19 577.822L3596.61 604.395L3594.72 608.192H3590.92L3587.12 615.784L3558.65 646.153L3543.47 663.235L3541.57 674.624V877.717L3539.68 1297.19H3532.08V665.133L3545.37 649.949L3573.84 619.58L3594.72 596.803L3611.8 577.822L3640.27 547.453L3663.04 524.677L3666.84 517.084L3663.04 518.982H1123.59L1097.01 517.084L1100.81 509.492L1153.95 492.409L1309.58 444.958L1311.48 441.162V420.283L1315.28 412.691L1319.07 410.793L1320.97 183.025L1307.69 181.127L1305.79 167.84L1307.69 126.083L1317.18 118.49L1319.07 93.8155L1322.87 91.9175ZM1328.56 99.5097L1326.67 101.408L1324.77 124.185L1317.18 129.879L1315.28 143.165V173.534L1328.56 179.229V406.996L1326.67 416.487L1319.07 422.181V441.162L1332.36 439.264L1391.2 422.181L1425.36 410.793V179.229L1438.65 175.432V133.675L1431.05 124.185L1429.16 101.408L1427.26 99.5097H1328.56ZM3393.53 99.5097L3391.64 101.408L3389.74 126.083L3380.25 129.879L3378.35 131.777V175.432L3391.64 179.229V401.302L3393.53 412.691L3429.59 425.977L3496.02 448.754H3501.72L3503.61 444.958V425.977L3499.82 418.385L3490.33 416.487V179.229L3501.72 175.432L3503.61 173.534V152.656L3501.72 131.777L3496.02 122.287L3494.12 101.408L3492.23 99.5097H3393.53ZM2423.68 109L2366.74 116.592L2324.99 126.083L2292.72 135.573L2254.76 150.758L2220.6 171.636L2197.83 192.515L2184.54 207.7L2167.46 241.865V264.642L2190.23 296.909L2197.83 308.297L2199.72 444.958L2201.62 446.856H2653.33L2657.13 433.569L2659.03 300.705L2666.62 287.418L2689.39 264.642L2691.29 260.845L2689.39 238.069L2681.8 215.292L2668.52 190.617L2647.64 167.84L2619.17 148.859L2583.11 131.777L2545.15 120.388L2503.4 112.796L2467.33 109H2423.68ZM2118.11 207.7L2095.34 211.496L1717.64 327.278L1482.3 399.404L1332.36 444.958L1271.63 463.938L1178.63 492.409L1134.97 505.696L1133.08 509.492L2774.8 511.39H3655.45L3653.55 507.594L3583.33 482.919L3429.59 431.671L3256.88 372.831L3188.55 350.054L3059.49 306.399L2886.78 247.559L2816.56 222.884L2767.21 207.7H2687.5L2685.6 211.496L2695.09 241.865L2696.99 258.947L2689.39 272.234L2664.72 296.909L2662.82 306.399L2660.92 450.652H2194.03L2192.13 310.195L2184.54 296.909L2165.56 270.336L2159.87 258.947L2163.66 239.967L2171.25 220.986L2176.95 211.496V207.7H2118.11Z" fill="white"/>
<path d="M2419.89 604.396H2552.74V1031.46L2550.84 1033.36H2419.89L2417.99 1031.46V606.294L2419.89 604.396Z" fill="white"/>
<path d="M2528.07 194.413L2558.44 198.209L2585.01 211.496L2598.29 222.884L2609.68 239.967L2615.37 258.947V429.773L2613.48 431.671H2450.25L2446.46 420.283V279.826L2450.25 253.253L2457.84 236.171L2465.44 224.782L2478.72 211.496L2505.29 198.209L2528.07 194.413Z" fill="white"/>
<path d="M2321.19 194.413L2351.56 198.209L2378.13 211.496L2389.52 220.986L2402.8 241.865L2408.5 264.642V429.773L2406.6 431.671H2241.48L2239.58 429.773V276.03L2245.27 247.559L2254.76 228.578L2271.85 211.496L2298.42 198.209L2321.19 194.413Z" fill="#FEFEFE"/>
<path d="M1136.87 509.492H3156.29L3579.53 511.39V513.288L3632.67 515.186L3642.16 517.084V518.983H1123.59L1129.28 515.186L1157.75 513.288L1136.87 511.39V509.492Z" fill="white"/>
<path d="M533.324 272.234H582.671V315.889L580.773 327.278L594.059 321.584L607.344 317.787L635.813 315.889L656.691 319.686L668.079 329.176L675.67 344.36L677.568 355.749L679.466 399.404L685.16 403.2L687.058 414.589V443.06L683.262 444.958H650.997L637.711 439.264L628.222 429.773L626.324 422.181V363.341L582.671 361.443V443.06L580.773 444.958H533.324V272.234Z" fill="#FEFEFE"/>
<path d="M358.713 272.234H516.243L518.141 274.132V315.889L516.243 317.787H468.794V443.06L464.998 444.958H411.855L409.958 443.06V319.686L358.713 317.787V272.234Z" fill="white"/>
<path d="M725.016 317.788H808.526L821.812 321.584L831.301 332.972L835.097 344.361V389.914L831.301 391.812H745.894L747.792 401.303L768.669 403.201H810.424L812.322 405.099V443.06L810.424 444.958H721.22L707.935 439.264L698.445 425.977L696.547 420.283V348.157L702.241 332.972L711.73 323.482L725.016 317.788ZM745.894 359.545V370.933L753.485 372.832H776.261L789.546 370.933V359.545H745.894Z" fill="white"/>
<path d="M1909.34 1082.71H1920.72L1926.42 1092.2L1939.7 1130.16L1949.19 1160.53V1166.22L1954.89 1160.53L1973.87 1105.48L1983.36 1084.61L1985.25 1082.71H1996.64L2000.44 1086.5L2006.13 1171.92V1189L1996.64 1190.9L1992.85 1185.2L1989.05 1114.98L1987.15 1105.48L1966.28 1164.32L1954.89 1189L1945.4 1187.1L1916.93 1105.48L1913.13 1170.02L1911.23 1189H1899.85L1897.95 1183.31L1903.64 1103.59L1905.54 1084.61L1909.34 1082.71Z" fill="white"/>
<path d="M3537.78 682.216L3541.57 689.809V877.717L3539.67 1297.19H3532.08V744.852H3533.98L3535.88 712.585L3537.78 682.216Z" fill="white"/>
<path d="M2829.84 1082.71H2860.21L2873.49 1086.5L2884.88 1099.79V1118.77L2873.49 1130.16L2877.29 1137.75L2886.78 1145.34L2890.58 1152.94L2888.68 1170.02L2881.09 1181.41L2865.9 1189L2854.52 1190.9H2826.05L2822.25 1187.1V1086.5L2829.84 1082.71ZM2839.33 1092.2L2835.54 1095.99V1128.26H2862.11L2873.49 1114.98L2871.6 1101.69L2862.11 1094.1L2839.33 1092.2ZM2835.54 1139.65V1175.71L2839.33 1181.41H2852.62L2865.9 1177.61L2875.39 1168.12V1152.94L2865.9 1141.55L2862.11 1139.65H2835.54Z" fill="white"/>
<path d="M417.549 1082.71H447.916L463.1 1088.4L472.589 1099.79V1116.87L461.202 1130.16L464.998 1137.75L476.385 1151.04L478.283 1162.43L472.589 1175.71L459.304 1187.1L440.324 1190.9H413.753L409.957 1189V1086.5L417.549 1082.71ZM427.039 1092.2L423.243 1094.1V1128.26H449.814L459.304 1118.77L461.202 1107.38L453.61 1095.99L440.324 1092.2H427.039ZM423.243 1139.65V1177.61L427.039 1181.41L449.814 1179.51L459.304 1173.82L463.1 1168.12V1154.83L455.508 1143.45L449.814 1139.65H423.243Z" fill="white"/>
<path d="M3304.33 1113.08H3321.41L3338.49 1120.67L3342.29 1113.08H3347.98L3349.88 1122.57V1185.2L3346.08 1202.29L3336.59 1215.57L3325.21 1221.27H3291.04L3285.35 1215.57V1209.88H3321.41L3330.9 1202.29L3336.59 1181.41L3321.41 1189H3300.53L3289.15 1181.41L3279.66 1166.22V1137.75L3289.15 1122.57L3298.64 1114.98L3304.33 1113.08ZM3308.13 1122.57L3298.64 1128.26L3292.94 1137.75L3291.04 1145.34V1158.63L3298.64 1173.82L3306.23 1179.51H3321.41L3332.8 1171.92L3336.59 1152.94L3334.7 1135.85L3325.21 1124.47L3321.41 1122.57H3308.13Z" fill="#FEFEFE"/>
<path d="M3520.7 456.346L3541.57 462.04L3647.86 498.104L3682.02 509.492L3680.12 517.084L3666.84 530.371L3653.55 545.555L3632.67 566.434L3630.78 570.23H3626.98L3623.18 577.822L3596.61 604.395L3594.72 608.191H3590.92L3587.12 615.784L3558.65 646.153L3543.47 663.235L3539.67 682.216L3537.78 712.585L3535.88 746.75L3532.08 744.852V665.133L3545.37 649.949L3573.84 619.58L3594.72 596.803L3611.8 577.822L3640.27 547.453L3663.04 524.677L3666.84 517.084L3663.04 518.982H3642.16L3632.67 517.084L3549.16 515.186V513.288L3579.53 511.39L3653.55 509.492L3583.33 484.817L3520.7 463.938L3516.9 458.244L3520.7 456.346Z" fill="white"/>
<path d="M761.077 1082.71H797.138L812.322 1088.4L821.812 1099.79L823.709 1103.59V1118.77L816.118 1132.06L808.526 1137.75L812.322 1147.24L818.016 1156.73L825.607 1183.31L823.709 1190.9L812.322 1187.1L800.934 1152.94L797.138 1147.24L791.444 1145.34H772.465L770.567 1189L761.077 1190.9L757.281 1177.61V1086.5L761.077 1082.71ZM774.363 1092.2L770.567 1094.1V1132.06L772.465 1133.96H795.24L810.424 1120.67V1107.38L804.73 1097.89L787.648 1092.2H774.363Z" fill="white"/>
<path d="M2419.88 1084.61H2476.82V1094.1H2433.17V1128.26H2473.03L2474.93 1130.16V1139.65H2433.17L2435.07 1177.61L2478.72 1179.51L2480.62 1187.1L2478.72 1189H2419.88V1084.61Z" fill="white"/>
<path d="M3087.96 1084.61L3095.56 1086.5V1147.24L3105.04 1137.75L3124.02 1116.87L3137.31 1111.18L3139.21 1116.87L3125.92 1132.06L3114.53 1145.34L3120.23 1154.83L3135.41 1173.82L3144.9 1187.1L3143 1190.9L3129.72 1189L3110.74 1166.22L3101.25 1156.73H3097.45L3095.56 1189L3089.86 1190.9L3082.27 1187.1V1088.4L3087.96 1084.61Z" fill="white"/>
<path d="M3017.74 1113.08H3038.62L3050 1118.77L3061.39 1132.06L3065.19 1141.55V1160.53L3059.49 1175.71L3046.21 1187.1L3038.62 1190.9H3015.84L3002.56 1183.31L2991.17 1166.22L2989.27 1151.04L2993.07 1135.85L3002.56 1120.67L3017.74 1113.08ZM3021.53 1122.57L3010.15 1130.16L3004.45 1143.45V1162.43L3012.04 1175.71L3021.53 1181.41L3038.62 1179.51L3050 1166.22L3051.9 1145.34L3046.21 1130.16L3034.82 1122.57H3021.53Z" fill="#FEFEFE"/>
<path d="M2930.43 1113.08H2953.21L2968.39 1122.57L2977.88 1139.65V1162.43L2970.29 1177.61L2957 1189L2951.31 1190.9H2928.54L2915.25 1183.31L2905.76 1170.02L2903.86 1164.32V1141.55L2911.45 1126.36L2924.74 1114.98L2930.43 1113.08ZM2936.13 1122.57L2924.74 1128.26L2919.05 1135.85L2917.15 1143.45V1162.43L2924.74 1175.71L2934.23 1181.41H2947.52L2960.8 1170.02L2964.6 1160.53V1145.34L2958.9 1132.06L2951.31 1124.47L2947.52 1122.57H2936.13Z" fill="#FEFEFE"/>
<path d="M1169.14 1113.08L1176.73 1114.98V1189L1171.03 1190.9L1165.34 1185.2V1181.41L1153.95 1189L1148.26 1190.9H1131.18L1119.79 1183.31L1114.1 1170.02L1112.2 1154.83V1114.98H1127.38L1129.28 1170.02L1134.97 1177.61L1146.36 1179.51L1159.65 1171.92L1161.54 1170.02L1163.44 1114.98L1169.14 1113.08Z" fill="white"/>
<path d="M2590.7 1113.08H2611.58L2622.97 1120.67L2630.56 1133.96L2632.46 1151.04L2626.76 1154.83H2577.41L2583.11 1170.02L2594.5 1179.51H2615.37L2626.76 1177.61L2624.86 1187.1L2617.27 1190.9H2588.8L2579.31 1185.2L2569.82 1173.82L2564.13 1158.63V1145.34L2571.72 1128.26L2579.31 1118.77L2590.7 1113.08ZM2596.39 1120.67L2585.01 1126.36L2579.31 1133.96L2577.41 1143.45L2594.5 1145.34H2615.37L2619.17 1143.45L2617.27 1132.06L2607.78 1122.57L2596.39 1120.67Z" fill="white"/>
<path d="M1806.85 1113.08H1827.72L1839.11 1120.67L1846.7 1132.06L1850.5 1149.14L1848.6 1152.94L1841.01 1154.83H1795.46L1801.15 1171.92L1806.85 1177.61L1812.54 1179.51H1833.42L1842.91 1177.61L1844.81 1185.2L1835.32 1190.9H1804.95L1791.66 1181.41L1782.17 1162.43V1143.45L1791.66 1124.47L1803.05 1114.98L1806.85 1113.08ZM1814.44 1120.67L1804.95 1124.47L1797.36 1133.96L1795.46 1143.45L1808.75 1145.34H1833.42L1837.21 1143.45L1833.42 1130.16L1825.83 1122.57L1814.44 1120.67Z" fill="white"/>
<path d="M508.651 1113.08H531.427L542.814 1120.67L548.508 1133.96V1189L542.814 1190.9L535.223 1185.2L523.835 1190.9H502.958L493.468 1183.31L489.672 1175.71V1160.53L499.162 1149.14L514.345 1143.45L535.223 1141.55L531.427 1128.26L527.631 1124.47H508.651L495.366 1126.36L497.264 1116.87L508.651 1113.08ZM521.937 1151.04L508.651 1154.83L502.958 1162.43V1173.82L508.651 1181.41L518.141 1183.31L529.529 1177.61L535.223 1171.92V1152.94L533.325 1151.04H521.937Z" fill="white"/>
<path d="M2036.5 1113.08L2042.19 1118.77V1164.32L2047.89 1175.71L2053.58 1179.51L2066.87 1177.61L2074.46 1171.92L2076.36 1162.43V1116.87L2082.05 1113.08L2091.54 1114.98V1189L2083.95 1190.9L2080.15 1187.1V1181.41L2063.07 1190.9H2044.09L2032.7 1181.41L2027.01 1164.32V1114.98L2036.5 1113.08Z" fill="#FEFEFE"/>
<path d="M1049.57 1113.08H1074.24L1087.52 1124.47L1091.32 1139.65V1189L1083.73 1190.9L1079.93 1183.31L1064.75 1190.9H1045.77L1036.28 1183.31L1030.59 1170.02L1032.48 1160.53L1040.08 1151.04L1049.57 1145.34L1068.54 1141.55H1078.03L1072.34 1126.36L1064.75 1122.57L1049.57 1124.47L1038.18 1126.36L1040.08 1116.87L1049.57 1113.08ZM1068.54 1151.04L1051.46 1154.83L1045.77 1160.53L1043.87 1170.02L1049.57 1179.51L1059.06 1183.31L1072.34 1177.61L1078.03 1170.02V1152.94L1068.54 1151.04Z" fill="#FEFEFE"/>
<path d="M863.568 1113.08H884.445L897.731 1122.57L905.323 1139.65V1151.04L897.731 1154.83H850.282L854.078 1168.12L863.568 1177.61L867.364 1179.51H888.241L897.731 1177.61L899.629 1185.2L892.037 1190.9L871.16 1192.8L857.874 1189L844.588 1177.61L838.895 1164.32V1139.65L846.486 1124.47L857.874 1114.98L863.568 1113.08ZM869.262 1120.67L857.874 1126.36L850.282 1137.75V1143.45L855.976 1145.34H888.241L892.037 1143.45L890.139 1132.06L880.649 1122.57L869.262 1120.67Z" fill="white"/>
<path d="M1265.93 1113.08H1286.81L1296.3 1118.77L1303.89 1130.16L1305.79 1145.34V1187.1L1296.3 1189L1290.61 1185.2L1279.22 1190.9H1258.34L1248.85 1181.41L1245.05 1171.92L1246.95 1158.63L1256.44 1149.14L1269.73 1143.45L1290.61 1141.55L1288.71 1130.16L1283.01 1124.47L1275.42 1122.57L1258.34 1126.36H1250.75L1254.54 1116.87L1265.93 1113.08ZM1279.22 1151.04L1265.93 1154.83L1258.34 1162.43V1173.82L1269.73 1183.31L1281.12 1181.41L1290.61 1173.82L1292.5 1168.12V1152.94L1290.61 1151.04H1279.22Z" fill="white"/>
<path d="M1328.56 1113.08L1336.16 1114.98L1339.95 1120.67L1349.44 1116.87L1357.03 1113.08H1374.12L1385.5 1120.67L1391.2 1130.16L1393.09 1137.75V1189H1379.81L1377.91 1137.75L1372.22 1128.26L1360.83 1124.47L1347.54 1130.16L1343.75 1137.75L1341.85 1189H1328.56V1113.08Z" fill="#FEFEFE"/>
<path d="M2651.44 1113.08L2660.92 1116.87L2662.82 1120.67L2672.31 1116.87L2678.01 1113.08H2696.99L2710.27 1124.47L2714.07 1133.96V1189H2702.68L2700.78 1179.51V1141.55L2695.09 1128.26L2689.39 1124.47L2676.11 1126.36L2666.62 1133.96L2664.72 1141.55L2662.82 1189H2651.44L2649.54 1187.1V1114.98L2651.44 1113.08Z" fill="white"/>
<path d="M2211.11 446.856H2609.68V452.55H2209.21L2211.11 446.856Z" fill="white"/>
<path d="M3198.04 1113.08L3207.53 1116.87L3209.43 1122.57L3226.51 1113.08H3243.6L3254.98 1120.67L3260.68 1130.16L3262.57 1139.65V1189H3249.29L3247.39 1187.1V1141.55L3243.6 1126.36L3228.41 1124.47L3217.02 1130.16L3213.23 1133.96L3211.33 1143.45L3209.43 1189H3198.04L3196.15 1116.87L3198.04 1113.08Z" fill="white"/>
<path d="M1524.05 1116.87H1543.03L1554.42 1124.47L1560.11 1135.85V1147.24L1550.62 1162.43L1535.44 1168.12L1518.36 1164.33L1508.87 1152.94L1506.97 1135.85L1514.56 1122.57L1524.05 1116.87Z" fill="#FEFEFE"/>
<path d="M679.467 1114.98L696.548 1118.77L707.936 1132.06V1149.14L700.344 1160.53L692.752 1166.22L679.467 1168.12L666.181 1162.43L656.691 1151.04V1133.96L664.283 1122.57L671.875 1116.87L679.467 1114.98Z" fill="#FEFEFE"/>
<path d="M2332.58 1116.87H2353.46L2366.74 1128.26L2368.64 1133.96V1149.14L2361.05 1160.53L2353.46 1166.22H2330.68L2319.29 1154.83L2317.4 1149.14V1133.96L2324.99 1122.57L2332.58 1116.87Z" fill="#FEFEFE"/>
<path d="M3537.78 682.216L3541.57 689.809V877.717L3539.67 1130.16H3537.78L3535.88 1075.12L3533.98 752.445L3532.08 744.852H3533.98L3535.88 712.585L3537.78 682.216Z" fill="white"/>
<path d="M1605.67 1082.71L1615.15 1084.61L1617.05 1177.61L1660.71 1179.51L1662.6 1187.1L1660.71 1189H1601.87V1084.61L1605.67 1082.71Z" fill="#FEFEFE"/>
<path d="M1706.26 1113.08L1719.54 1114.98L1738.52 1170.02L1740.42 1171.92L1757.5 1124.47L1763.19 1114.98L1774.58 1113.08L1772.68 1124.47L1748.01 1185.2L1742.32 1190.9L1732.83 1187.1L1723.34 1168.12L1704.36 1116.87L1706.26 1113.08Z" fill="#FEFEFE"/>
<path d="M2490.11 1113.08H2499.6L2505.29 1120.67L2522.37 1171.92L2526.17 1166.22L2543.25 1116.87L2548.95 1113.08L2558.44 1114.98L2548.95 1143.45L2531.86 1183.31L2524.27 1190.9L2516.68 1187.1L2510.99 1177.61L2497.7 1143.45L2490.11 1122.57V1113.08Z" fill="#FEFEFE"/>
<path d="M3385.94 1113.08H3404.92L3412.51 1116.87L3414.41 1124.47L3408.72 1126.36L3403.02 1124.47H3389.74L3384.04 1128.26V1137.75L3410.61 1152.94L3416.31 1160.53V1175.71L3406.82 1187.1L3399.23 1190.9H3376.45L3366.96 1185.2V1177.61L3380.25 1179.51H3395.43L3403.02 1171.92L3399.23 1162.43L3378.35 1151.04L3370.76 1141.55L3368.86 1130.16L3376.45 1118.77L3385.94 1113.08Z" fill="white"/>
<path d="M2127.6 1113.08H2150.38L2156.07 1118.77V1126.36L2131.4 1124.47L2125.7 1130.16L2127.6 1137.75L2146.58 1149.14L2157.97 1158.63L2159.87 1162.43V1173.82L2152.27 1185.2L2142.78 1190.9H2120.01L2110.52 1185.2V1177.61L2121.91 1179.51H2138.99L2144.68 1175.71L2146.58 1168.12L2138.99 1160.53L2121.91 1151.04L2112.42 1139.65V1128.26L2123.81 1114.98L2127.6 1113.08Z" fill="white"/>
<path d="M1423.46 1095.99L1431.05 1097.89L1432.95 1113.08L1451.93 1114.98V1124.47H1431.05L1432.95 1179.51L1450.03 1181.41V1189L1446.24 1190.9H1431.05L1423.46 1187.1L1419.67 1179.51L1417.77 1166.22V1124.47H1408.28L1406.38 1116.87L1412.07 1113.08H1417.77L1419.67 1099.79L1423.46 1095.99Z" fill="white"/>
<path d="M935.689 1113.08H954.668L964.158 1118.77V1124.47L958.464 1126.36L952.771 1124.47H937.587L933.791 1128.26L935.689 1139.65L960.362 1152.94L966.056 1160.53V1175.71L954.668 1189L948.975 1190.9H926.199L918.607 1185.2V1177.61L929.995 1179.51H947.077L952.771 1171.92L950.873 1162.43L926.199 1149.14L920.505 1141.55V1126.36L928.097 1116.87L935.689 1113.08Z" fill="white"/>
<path d="M2237.68 1113.08H2264.25L2269.95 1118.77L2268.05 1124.47H2241.48L2230.09 1132.06L2224.4 1143.45V1160.53L2233.89 1175.71L2243.38 1179.51H2256.66L2268.05 1177.61L2269.95 1183.31L2264.25 1189L2258.56 1190.9H2233.89L2222.5 1183.31L2213.01 1171.92L2211.11 1166.22V1139.65L2218.7 1124.47L2231.99 1114.98L2237.68 1113.08Z" fill="#FEFEFE"/>
<path d="M994.525 1095.99H1000.22L1002.12 1114.98H1021.1L1022.99 1122.57L1021.1 1124.47H1002.12V1170.02L1007.81 1179.51L1021.1 1183.31L1017.3 1190.9H1000.22L990.729 1181.41L988.831 1175.71L986.933 1126.36L977.443 1122.57L979.341 1114.98L988.831 1113.08V1101.69L994.525 1095.99Z" fill="white"/>
<path d="M2746.33 1095.99H2752.03L2753.92 1113.08L2771.01 1114.98L2772.9 1122.57L2771.01 1124.47L2753.92 1126.36V1168.12L2755.82 1177.61L2769.11 1179.51L2771.01 1189L2769.11 1190.9H2752.03L2742.54 1183.31L2740.64 1177.61L2738.74 1126.36L2727.35 1122.57L2731.15 1114.98L2738.74 1111.18L2742.54 1097.89L2746.33 1095.99Z" fill="#FEFEFE"/>
<path d="M573.181 1113.08L582.671 1116.87L586.467 1122.57L599.752 1113.08H609.242V1122.57L592.161 1132.06L588.365 1135.85L586.467 1145.34L584.569 1189H573.181L571.283 1187.1V1114.98L573.181 1113.08Z" fill="#FEFEFE"/>
<path d="M1311.48 167.84H1315.28L1317.18 173.535L1330.46 179.229V406.997H1328.56V357.647H1324.77L1322.87 202.006H1320.97V183.025L1311.48 179.229V167.84Z" fill="white"/>
<path d="M1229.87 1113.08H1239.36V1122.57L1220.38 1132.06L1216.59 1137.75L1214.69 1189L1207.1 1190.9L1201.4 1189V1114.98L1210.89 1116.87L1214.69 1122.57L1229.87 1113.08Z" fill="#FEFEFE"/>
<path d="M1685.38 1113.08L1691.07 1114.98V1187.1L1687.28 1190.9L1677.79 1189L1675.89 1183.31V1114.98L1685.38 1113.08Z" fill="#FEFEFE"/>
<path d="M3160.09 1113.08H3171.47L3173.37 1114.98V1187.1L3171.47 1189H3160.09L3158.19 1175.71V1116.87L3160.09 1113.08Z" fill="#FEFEFE"/>
<path d="M2180.74 1113.08H2190.23V1189L2184.54 1190.9L2178.85 1189L2176.95 1181.41V1116.87L2180.74 1113.08Z" fill="#FEFEFE"/>
<path d="M2190.23 511.39L2199.72 513.288L2203.52 511.39H2290.82L2298.42 515.186V511.39L2315.5 513.288L2399.01 515.186V517.084H2152.27L2159.87 513.288H2186.44L2190.23 511.39Z" fill="white"/>
<path d="M1167.24 488.613H1174.83L1176.73 494.307L1134.97 507.594L1136.87 509.492L1159.65 511.39L1157.75 515.186L1129.28 517.084H1097.01L1100.81 509.492L1153.95 492.409L1167.24 488.613Z" fill="white"/>
<path d="M3078.47 306.399L3095.56 310.195L3124.02 319.685L3129.72 327.278L3122.13 329.176L3087.96 317.787L3084.17 312.093L3078.47 310.195V306.399Z" fill="white"/>
<path d="M1167.24 488.613H1174.83L1176.73 494.307L1134.97 507.594H1125.48L1129.28 505.696L1131.18 500.002L1167.24 488.613Z" fill="white"/>
<path d="M1210.89 475.327L1216.59 477.225L1208.99 479.123V484.817L1176.73 494.308L1172.93 486.716L1210.89 475.327Z" fill="white"/>
<path d="M3163.88 1084.61L3173.37 1086.5L3175.27 1094.1L3171.47 1099.79H3160.09L3158.19 1097.89V1088.4L3163.88 1084.61Z" fill="#FEFEFE"/>
<path d="M2180.74 1084.61H2190.23L2192.13 1086.5V1097.89L2190.23 1099.79H2178.85L2176.95 1097.89V1086.5L2180.74 1084.61Z" fill="#FEFEFE"/>
<path d="M1677.79 1084.61L1691.07 1086.5L1689.17 1099.79H1677.79L1675.89 1097.89V1086.5L1677.79 1084.61Z" fill="#FEFEFE"/>
</svg>
