<svg width="3600" height="1055" viewBox="0 0 3600 1055" fill="none" xmlns="http://www.w3.org/2000/svg">
<path d="M731.03 0H741.663L752.297 3.98615L757.613 10.6297L760.271 17.2733V29.2317L754.955 43.8476L744.322 65.107L725.714 99.6536L715.08 120.913L708.435 136.858L709.764 159.446L707.106 166.089V170.076L740.334 187.349L760.271 200.636L777.55 213.923L794.829 228.539L808.121 240.497L833.374 265.743L847.995 284.345L862.616 304.276L877.236 328.193L886.54 345.466V348.123L894.515 346.795H907.807L915.781 348.123L933.06 341.48L960.972 328.193L990.214 312.248L1015.47 298.961L1030.09 294.975L1043.38 296.304L1050.03 300.29V302.947H1052.68L1056.67 312.248V324.207L1051.35 333.508L1040.72 341.48L1023.44 348.123L966.289 365.397L934.389 377.355L927.744 381.341L921.098 391.971L913.123 397.286H910.465L915.781 418.545L922.427 446.448L927.744 478.337L930.402 503.583V552.746L925.085 599.251L917.111 633.797L911.794 652.399L913.123 657.714L922.427 663.029L930.402 674.987L950.339 682.96L999.518 698.904L1031.42 708.205L1044.71 714.849L1054.01 722.821L1058 733.451L1055.34 746.738L1047.37 756.039L1040.72 758.696H1026.1L1008.82 752.053L938.377 714.849L919.769 706.877L913.123 705.548L909.136 708.205H897.173L889.198 704.219L886.54 712.191L875.907 730.793L862.616 752.053L846.666 773.312L834.704 787.928L820.083 803.873L797.487 826.461L782.867 838.419L765.588 851.707L736.347 870.308L708.435 886.253L711.093 899.54L709.764 918.142L716.41 934.087L727.043 955.346L745.651 991.222L758.942 1016.47L761.601 1024.44V1039.06L754.955 1049.69L748.309 1053.67L742.992 1055H733.688L723.055 1049.69L717.739 1043.04L708.435 1021.78L689.827 960.661L679.193 932.758L676.535 926.115L671.219 923.457L663.244 918.142L659.256 910.17V907.513L651.281 908.841L612.736 918.142L580.837 923.457L551.596 926.115H513.05L482.48 923.457L449.251 918.142L413.364 908.841L402.731 906.184L394.756 919.471L382.794 927.443L373.49 948.703L362.857 980.592L348.236 1028.43L338.932 1047.03L330.957 1053.67L326.97 1055H313.678L305.704 1051.01L299.058 1043.04L297.729 1039.06V1024.44L304.374 1007.17L321.653 975.277L337.603 944.717L349.565 918.142V910.17L348.236 907.513V894.225L350.894 887.582V883.596L326.97 870.308L299.058 851.707L281.779 838.419L264.5 823.803L231.271 790.586L216.651 771.984L204.688 756.039L188.739 730.793L175.447 706.877L163.485 708.205L160.827 709.534L138.231 708.205L114.307 718.835L87.7236 732.122L57.1533 749.395L35.8869 758.696L31.8995 760.025H17.2789L9.30402 756.039L3.98744 749.395L0 736.108L5.31658 724.15L11.9623 717.506L19.9372 712.191L57.1533 700.233L97.0276 688.274L126.269 676.316L132.915 669.673L138.231 661.7L151.523 653.728L150.193 644.427L140.889 607.223L135.573 574.005L132.915 539.458V518.199L135.573 482.324L140.889 449.106L148.864 417.217L151.523 407.916V402.601L135.573 393.3L127.598 381.341L102.344 370.712L55.8241 356.096L21.2663 345.466L9.30402 337.494L2.65829 330.85L0 324.207L1.32915 312.248L7.97487 301.618L18.608 296.304H27.9121L47.8492 302.947L82.407 321.549L107.661 334.836L130.256 345.466L139.56 349.452L156.839 346.795L168.802 349.452H175.447L191.397 320.22L202.03 304.276L215.322 285.674L229.942 268.4L241.905 253.785L248.55 248.47L255.196 240.497L265.829 231.196L277.791 220.567L299.058 204.622L322.982 188.678L344.249 176.719L349.565 172.733L346.907 159.446V150.145L348.236 138.186L338.932 115.598L325.641 90.3526L307.033 55.806L297.729 37.204L296.399 31.8892V15.9446L301.716 7.97229L308.362 2.65743L311.02 1.32872H328.299L338.932 9.30101L346.907 26.5743L366.844 90.3526L377.477 122.242L384.123 130.214L392.098 135.529L397.415 142.173L401.402 148.816V151.474L437.289 140.844L471.847 134.2L510.392 130.214H554.254L591.47 134.2L620.711 139.515L649.952 147.487L655.269 148.816L663.244 136.858L676.535 126.228L687.168 99.6536L703.118 46.505L712.422 18.602L720.397 6.64358L727.043 1.32872L731.03 0ZM326.97 3.98615L324.312 10.6297L329.628 21.2594L338.932 25.2456L340.261 18.602L334.945 7.97229L328.299 3.98615H326.97ZM740.334 19.9307L736.347 23.9169L731.03 43.8476L732.359 49.1625L739.005 47.8338L744.322 41.1902L749.638 29.2317V21.2594L740.334 19.9307ZM328.299 25.2456L326.97 29.2317L334.945 57.1348L345.578 83.7091L358.869 111.612L364.186 118.256L369.503 119.584L368.173 108.955L360.199 81.0516L350.894 55.806L337.603 27.903L328.299 25.2456ZM700.46 119.584L695.143 124.899L696.472 128.885L703.118 130.214L705.776 128.885V122.242L700.46 119.584ZM703.118 175.39L704.447 180.705L729.701 193.992L750.967 204.622L766.917 213.923L769.575 212.594L749.638 197.979L717.739 179.377L708.435 175.39H703.118ZM510.392 220.567L478.492 224.553L445.264 232.525L438.618 235.183L439.947 240.497L442.606 247.141V264.414L438.618 271.058L441.276 277.701L445.264 283.016L457.226 287.002L458.555 292.317L454.568 293.646L459.884 306.933L474.505 332.179L489.126 362.739L490.455 366.725V377.355L486.467 386.656L498.43 397.286L509.063 407.916L499.759 409.244L498.43 413.23L505.075 417.217L510.392 415.888L518.367 431.832L525.013 434.49H540.962L544.95 431.832L554.254 409.244L562.229 397.286L570.204 391.971L574.191 387.985L572.862 378.684L570.204 369.383L580.837 344.137L594.128 320.22L603.432 304.276L604.761 300.29V284.345H615.394L619.382 280.359L623.369 271.058L619.382 264.414V245.812L623.369 239.169L622.04 233.854L604.761 228.539L576.849 223.224L552.925 220.567H510.392ZM741.663 240.497L746.98 247.141L760.271 257.771L792.171 289.66L816.096 318.892L836.033 349.452L846.666 369.383L857.299 394.628L871.92 438.476L881.224 479.666L887.869 526.171L890.528 550.088L893.186 547.431V491.625L889.198 463.722L882.553 434.49L874.578 407.916L861.286 374.698L850.653 353.438L837.362 330.85L818.754 305.605L802.804 288.331L796.158 280.359L785.525 271.058L768.246 256.442L749.638 243.155L741.663 240.497ZM671.219 255.113L664.573 269.729L657.927 273.715L653.94 277.701L645.965 281.688L641.977 293.646L648.623 301.618V305.605L640.648 310.919L635.332 322.878L627.357 353.438L618.053 380.013L612.736 389.314L599.445 395.957L598.116 403.929L600.774 414.559L594.128 435.819L588.812 447.777L587.482 451.763L594.128 454.421V457.078L602.103 463.722L604.761 467.708L614.065 466.379L622.04 462.393L628.686 461.064L627.357 466.379L628.686 467.708H636.661V463.722H631.344V461.064L645.965 455.749L647.294 462.393L652.611 463.722L656.598 459.736L663.244 457.078L668.56 445.12V442.462L676.535 439.805L701.789 430.504L727.043 423.86L745.651 417.217L750.967 409.244L757.613 410.573L762.93 414.559H769.575L778.879 407.916L780.209 401.272L790.842 390.642L802.804 385.327L801.475 378.684L792.171 362.739L776.221 340.151L764.259 325.535L745.651 305.605L732.359 293.646L709.764 276.373L691.156 264.414L675.206 255.113H671.219ZM386.781 256.442L362.857 271.058L348.236 281.688L329.628 296.304L299.058 326.864L284.437 345.466L271.146 365.397L260.513 383.999L261.842 387.985L273.804 393.3L279.121 399.943L283.108 403.929L287.095 411.902L289.754 414.559H300.387L307.033 409.244H311.02L313.678 414.559L321.653 419.874L338.932 425.189L370.832 434.49L390.769 442.462L394.756 446.448L400.073 457.078L401.402 458.407H425.327L445.264 465.05L453.239 469.036L459.884 467.708L469.188 457.078L474.505 450.434L466.53 431.832L462.543 418.545V410.573L463.872 402.601L462.543 395.957L450.58 389.314H447.922L445.264 382.67L433.302 349.452L426.656 322.878L420.01 309.591L413.364 305.605L416.023 298.961L418.681 296.304V287.002L416.023 281.688L408.048 277.701L397.415 269.729L390.769 256.442H386.781ZM429.314 257.771L425.327 263.086L429.314 267.072L434.631 264.414L438.618 259.099L429.314 257.771ZM809.45 272.387L817.425 283.016L829.387 294.975L844.008 313.577L855.97 329.521L871.92 356.096L877.236 353.438L878.565 350.781L866.603 329.521L855.97 314.906L841.349 298.961L825.4 283.016L812.108 272.387H809.45ZM619.382 284.345L622.04 290.989L628.686 293.646H636.661L634.003 288.331L623.369 284.345H619.382ZM443.935 296.304L445.264 308.262L457.226 340.151L467.859 361.411L474.505 372.04L479.822 373.369L481.151 366.725L473.176 344.137L462.543 321.549L450.58 300.29L446.593 296.304H443.935ZM626.028 302.947L618.053 314.906L608.749 333.508L599.445 358.753L598.116 369.383L599.445 370.712H606.09L614.065 358.753L622.04 338.822L630.015 312.248V302.947H626.028ZM1028.76 308.262L1023.44 313.577V320.22L1028.76 324.207L1036.73 322.878L1042.05 317.563V310.919L1039.39 308.262H1028.76ZM929.073 353.438L923.756 356.096L926.415 362.739L931.731 365.397L937.048 361.411V354.767L935.719 353.438H929.073ZM578.178 399.943L576.849 403.929L583.495 406.587H587.482L586.153 401.272L578.178 399.943ZM487.796 401.272L485.138 407.916L491.784 409.244L490.455 401.272H487.796ZM897.173 401.272L891.857 406.587L897.173 421.203L905.148 450.434L910.465 478.337L915.781 524.843H917.111V506.241L914.452 459.736L909.136 426.518L902.49 405.258L899.832 401.272H897.173ZM761.601 426.518V430.504H766.917V426.518H761.601ZM821.412 433.161L809.45 438.476L793.5 437.147L788.183 434.49L778.879 435.819L773.563 443.791V453.092L768.246 451.763H757.613L740.334 461.064L716.41 474.351L696.472 483.652L689.827 486.31L680.523 484.981L675.206 482.324L669.889 483.652L663.244 490.296L656.598 498.268L627.357 512.884L626.028 514.213V536.801L628.686 540.787L651.281 550.088H653.94L652.611 559.389L656.598 558.06L657.927 554.074L665.902 566.033L672.548 570.019L679.193 567.361L688.498 566.033L704.447 571.348L725.714 581.977L748.309 595.264L758.942 600.579H765.588L770.905 597.922L774.892 612.538L785.525 617.853L792.171 615.195L810.779 613.866L821.412 619.181L826.729 617.853L834.704 584.635L838.691 558.06L840.02 540.787V515.542L837.362 487.639L832.045 457.078L825.4 433.161H821.412ZM239.246 434.49L231.271 462.393L225.955 496.94L224.626 510.227V544.773L228.613 577.991L235.259 609.88L237.917 619.181L247.221 617.853L249.879 623.167L256.525 625.825L257.854 619.181L252.538 616.524H248.55V613.866H257.854L261.842 615.195L271.146 613.866L269.817 623.167L272.475 625.825H276.462L275.133 617.853L284.437 616.524L289.754 609.88V600.579H304.374L320.324 592.607L342.92 579.32L365.515 568.69L373.49 566.033L382.794 567.361L389.44 570.019L396.085 566.033L404.06 555.403L423.998 544.773L435.96 540.787L437.289 538.13V512.884L417.352 504.912L404.06 496.94L393.427 483.652H385.452L377.477 487.639L357.54 480.995L326.97 465.05L308.362 454.421L301.716 451.763L288.425 453.092L289.754 443.791L283.108 437.147L276.462 434.49L268.487 438.476H259.183L255.196 439.805L243.234 434.49H239.246ZM381.465 453.092L380.136 459.736L386.781 461.064L388.111 454.421L381.465 453.092ZM655.269 467.708L656.598 473.023L661.915 474.351L660.585 469.036L655.269 467.708ZM190.068 469.036L183.422 491.625L182.093 499.597V552.746L188.739 592.607L199.372 629.811L210.005 657.714L221.967 684.288L233.93 705.548L247.221 725.479L261.842 744.081L273.804 757.368L297.729 781.285L316.337 795.9L338.932 811.845L365.515 827.79L369.503 829.118L366.844 823.803L349.565 810.516L334.945 798.558L315.008 781.285L295.07 762.683L285.766 752.053L269.817 733.451L252.538 710.863L236.588 685.617L225.955 665.686L215.322 640.441L204.688 607.223L196.714 571.348L191.397 530.157V469.036H190.068ZM530.329 499.597L518.367 503.583L509.063 511.555L505.075 520.856V534.144L510.392 544.773L519.696 552.746L527.671 555.403L540.962 554.074L552.925 546.102L558.241 536.801L559.57 531.486V522.185L554.254 511.555L543.621 502.254L530.329 499.597ZM211.334 522.185V555.403L213.992 581.977L220.638 611.209L225.955 623.167L232.601 621.839L228.613 605.894L221.967 577.991L216.651 542.116L215.322 526.171L213.992 522.185H211.334ZM380.136 580.649V588.621L385.452 589.95L386.781 587.292L385.452 580.649H380.136ZM392.098 580.649V585.963L397.415 584.635L396.085 580.649H392.098ZM689.827 580.649V584.635L701.789 592.607L724.384 603.237L748.309 611.209L758.942 612.538V608.552L745.651 600.579L720.397 588.621L696.472 580.649H689.827ZM921.098 580.649L918.44 587.292L910.465 619.181L901.161 649.742L902.49 655.057L906.477 653.728L914.452 627.154L921.098 597.922L922.427 580.649H921.098ZM453.239 584.635L431.972 592.607L426.656 593.936H412.035L405.389 592.607L398.744 597.922L393.427 609.88L360.199 621.839L326.97 631.14L315.008 636.455L311.02 643.098L304.374 641.769L299.058 637.783L289.754 639.112L284.437 645.756L280.45 653.728L271.146 661.7L259.183 667.015L261.842 673.659L273.804 694.918L287.095 713.52L304.374 733.451L334.945 764.011L360.199 782.613L385.452 798.558L392.098 797.229L398.744 782.613L408.048 774.641L417.352 770.655L420.01 764.011L418.681 756.039L414.693 754.71V746.738L421.339 742.752L427.985 726.807L435.96 696.247L446.593 668.344L451.91 661.7L461.214 657.714L463.872 653.728L462.543 635.126L467.859 617.853L473.176 605.894L470.518 600.579L461.214 591.278L458.555 585.963L453.239 584.635ZM607.42 585.963L595.457 599.251L590.141 603.237L599.445 631.14V643.098L598.116 652.399L603.432 659.043L614.065 664.358L623.369 685.617L632.673 716.178L636.661 732.122L644.636 744.081L649.952 745.409L648.623 750.724L643.307 758.696L644.636 770.655L641.977 773.312V777.298L648.623 774.641L653.94 773.312L657.927 777.298L659.256 779.956L665.902 782.613L672.548 798.558L675.206 799.887L689.827 791.914L719.068 771.984L737.676 756.039L748.309 746.738L761.601 733.451L773.563 718.835L786.854 701.562L805.462 669.673L804.133 665.686L790.842 660.371L780.209 649.742L776.221 641.769L770.905 637.783H761.601L757.613 641.769H750.967L746.98 635.126L723.055 627.154L691.156 617.853L671.219 609.88L667.231 604.565L663.244 596.593L656.598 592.607L643.307 595.264L627.357 591.278L614.065 585.963H607.42ZM518.367 621.839L502.417 653.728L490.455 661.7L487.796 669.673L491.784 677.645L490.455 688.274L481.151 709.534L466.53 736.108L457.226 754.71L458.555 767.997H447.922L442.606 771.984L441.276 775.97V785.271L443.935 803.873L438.618 815.831V819.817L458.555 826.461L486.467 831.776L510.392 834.433H555.583L586.153 830.447L620.711 822.475L624.698 821.146L623.369 813.174L619.382 805.201L620.711 787.928L623.369 782.613L622.04 774.641L616.724 769.326L604.761 766.669L606.09 760.025L607.42 757.368L596.786 734.78L588.812 721.492L578.178 701.562L571.533 685.617V676.316L575.52 668.344L571.533 661.7L558.241 649.742L546.279 624.496L544.95 623.167L518.367 621.839ZM587.482 635.126L583.495 640.441L586.153 643.098L592.799 641.769L591.47 636.455L587.482 635.126ZM467.859 664.358V669.673L470.518 672.33H477.163V667.015L467.859 664.358ZM249.879 669.673L247.221 671.001L249.879 678.974L259.183 694.918L275.133 716.178L285.766 729.465H288.425L291.083 734.78L326.97 770.655L329.628 769.326L313.678 752.053L304.374 741.423L287.095 720.164L268.487 692.261L256.525 669.673H249.879ZM602.103 669.673L599.445 672.33V678.974L602.103 681.631L608.749 680.302L610.078 674.987L604.761 669.673H602.103ZM475.834 673.659L471.847 676.316L474.505 681.631L481.151 680.302V676.316L475.834 673.659ZM913.123 674.987V678.974L918.44 681.631H925.085L923.756 676.316L913.123 674.987ZM934.389 681.631V688.274L941.035 693.589L970.276 709.534L1006.16 725.479L1026.1 732.122L1036.73 733.451L1039.39 730.793L1038.06 724.15L1024.77 714.849L996.859 702.89L963.631 690.932L937.048 682.96L934.389 681.631ZM636.661 746.738L634.003 750.724H639.319L640.648 746.738H636.661ZM439.947 756.039V760.025H442.606V756.039H439.947ZM420.01 777.298V781.285L429.314 786.599L434.631 785.271L430.643 781.285L423.998 777.298H420.01ZM657.927 786.599L656.598 791.914L657.927 793.243L667.231 791.914L668.56 787.928L657.927 786.599ZM692.485 911.499L693.814 915.485H700.46V911.499H692.485ZM704.447 928.772L703.118 932.758L709.764 952.689L727.043 991.222L737.676 1009.82L742.992 1011.15L744.322 1005.84L736.347 984.578L713.751 939.402L705.776 928.772H704.447Z" fill="white"/>
<path d="M1662.67 559L1678.33 562.917V594.257L1670.5 598.174L1635.25 602.092V715.697H1799.75L1803.67 598.174H1764.5L1756.67 570.752L1760.58 562.917H1925.08L1929 566.835V594.257L1925.08 598.174L1897.67 602.092L1893.75 950.743H1925.08L1929 954.661V982.083L1925.08 986H1768.42L1760.58 982.083V950.743H1803.67V758.789L1635.25 762.706V946.826L1674.42 950.743L1678.33 982.083L1670.5 986H1506V950.743H1541.25V598.174H1509.92L1506 594.257V566.835L1509.92 562.917L1662.67 559Z" fill="white"/>
<path d="M2652.5 78H2703.42L2758.25 89.7391L2797.42 105.391L2836.58 132.783L2867.92 164.087L2891.42 203.217L2907.08 250.174L2911 273.652V340.174L2899.25 387.13L2875.75 434.087L2840.5 473.217L2797.42 500.609L2758.25 516.261L2703.42 528H2632.92L2578.08 512.348L2538.92 492.783L2499.75 457.565L2472.33 414.522L2456.67 383.217L2444.92 344.087L2441 316.696V269.739L2452.75 218.87L2480.17 168L2503.67 140.609L2554.58 105.391L2597.67 89.7391L2652.5 78ZM2629 121.043L2593.75 140.609L2574.17 156.261L2554.58 187.565L2538.92 250.174V304.957L2550.67 363.652L2570.25 410.609L2593.75 441.913L2621.17 469.304L2648.58 484.957L2699.5 492.783L2738.67 484.957L2770 465.391L2793.5 438L2809.17 394.957L2813.08 371.478V293.217L2801.33 230.609L2773.92 175.826L2746.5 144.522L2707.33 124.957L2695.58 121.043H2629Z" fill="white"/>
<path d="M2778.53 559H2805.93L2813.76 566.839V947.045L2845.08 950.964L2849 954.884V982.321L2845.08 986.241H2727.63L2723.72 954.884L2684.57 982.321L2649.33 994.08L2629.75 998H2578.86L2539.71 986.241L2508.39 962.723L2484.9 923.527L2477.07 903.929L2473.15 880.411V602.116L2441.83 598.196L2434 590.357V566.839L2437.92 562.92H2563.2L2567.11 876.491L2578.86 915.688L2602.35 935.286L2614.09 939.205H2664.99L2696.31 923.527L2711.97 900.009L2715.89 888.25L2719.8 688.348L2723.72 598.196H2688.48L2680.65 574.679L2684.57 562.92L2778.53 559Z" fill="white"/>
<path d="M2140 551H2234L2284.92 562.763L2328 586.289L2375 629.421L2398.5 668.632L2418.08 727.447L2422 786.263L2414.17 841.158L2394.58 888.211L2359.33 931.342L2324.08 958.789L2277.08 982.316L2210.5 998H2147.83L2089.08 982.316L2049.92 962.711L2006.83 923.5L1979.42 880.368L1959.83 833.316L1952 798.026V727.447L1967.67 676.474L1987.25 641.184L2022.5 601.974L2057.75 578.447L2104.75 558.842L2140 551ZM2151.75 586.289L2112.58 601.974L2081.25 629.421L2061.67 660.789L2049.92 707.842V782.342L2061.67 837.237L2093 899.974L2120.42 931.342L2151.75 950.947L2179.17 958.789H2230.08L2269.25 943.105L2300.58 911.737L2316.25 872.526L2320.17 856.842V743.132L2304.5 684.316L2284.92 645.105L2265.33 621.579L2230.08 598.053L2190.92 586.289H2151.75Z" fill="white"/>
<path d="M1549.06 90H1690L1748.72 97.8165L1799.62 117.358L1838.77 152.532L1862.26 191.615L1874 234.606V265.872L1862.26 324.495L1834.85 367.486L1803.53 390.936L1764.38 406.569L1717.4 414.385H1670.43L1635.19 410.477V480.826H1666.51L1682.17 488.642L1678.26 516H1509.91L1506 512.092V488.642L1529.49 480.826H1545.15V129.083L1509.91 125.174V97.8165L1513.83 93.9083L1549.06 90ZM1639.11 129.083L1635.19 132.991V344.037L1646.94 363.578L1674.34 375.303H1713.49L1744.81 359.67L1764.38 332.312L1772.21 304.954V215.064L1756.55 172.073L1733.06 144.716L1709.57 132.991L1693.91 129.083H1639.11Z" fill="white"/>
<path d="M3420.28 559H3549.21L3560.93 578.595L3580.47 625.622V649.135L3560.93 653.054L3529.67 625.622L3498.42 606.027L3478.88 602.108H3396.84V715.757H3521.86L3525.77 680.486H3557.02L3560.93 723.595V778.459L3557.02 798.054H3525.77L3521.86 794.135L3517.95 762.784H3396.84V946.973H3451.53L3486.7 943.054L3525.77 923.459L3557.02 888.189L3572.65 872.514H3596.09L3600 888.189L3557.02 982.243L3541.4 994L3529.67 990.081L3275.72 986.162L3264 978.324L3267.91 950.892H3303.07V598.189H3271.81L3264 578.595L3267.91 562.919L3420.28 559Z" fill="white"/>
<path d="M3020.91 551H3095.36L3134.55 562.763L3150.22 570.605L3169.81 566.684H3201.16L3205.08 582.368L3165.9 641.184L3154.14 652.947L3111.03 617.658L3079.69 601.974L3064.01 598.053H3013.07L2985.64 613.737L2977.8 625.5V656.868L2997.4 680.395L3044.42 703.921L3118.87 731.368L3169.81 758.816L3197.24 790.184L3209 821.553V876.447L3197.24 915.658L3173.73 950.947L3146.3 974.474L3107.12 990.158L3071.85 998H3013.07L2962.13 986.237L2907.27 958.789L2872 931.342L2883.76 907.816L2922.94 856.842L2942.53 864.684L2962.13 884.289L2993.48 911.737L3032.66 931.342L3060.09 939.184H3103.2L3134.55 923.5L3146.3 903.895V864.684L3130.63 841.158L3099.28 821.553L3005.23 786.263L2950.37 758.816L2930.78 743.132L2911.19 707.842V645.105L2934.7 598.053L2966.05 570.605L3005.23 554.921L3020.91 551Z" fill="white"/>
<path d="M2946.63 78H2977.9L2981.8 85.8214H3224.1V78H3255.37L3271 167.946V199.232H3251.46L3224.1 160.125L3208.47 144.482L3177.21 132.75L3145.94 128.839V480.804H3181.11L3188.93 484.714V516H3013.07L3009.16 500.357V484.714L3052.15 480.804L3056.06 124.929L2993.53 144.482L2966.17 175.768L2950.54 199.232L2931 195.321V164.036L2946.63 78Z" fill="white"/>
<path d="M2152.16 90H2289.2V125.224L2246.13 129.138V477.466H2320.53L2359.69 461.81L2391.01 430.5L2406.67 407.017L2430.17 403.103L2438 407.017L2430.17 446.155L2398.84 536.172L2394.93 544H2363.6L2359.69 532.259L2363.6 516.603H2116.92L2113 497.034V485.293L2156.07 481.379L2152.16 434.414V133.052L2120.83 129.138L2116.92 125.224V93.9138L2152.16 90Z" fill="white"/>
<path d="M1947.76 90H2061.18L2065.09 93.9091V121.273L2057.27 129.091H2025.98V480.909H2057.27L2069 488.727V512.182L2065.09 516.091L1998.6 520L1893 516.091V484.818L1900.82 480.909H1936.02V129.091H1900.82L1893 125.182V97.8182L1896.91 93.9091L1947.76 90Z" fill="white"/>
<path d="M1211.93 411H1282.59L1286.52 422.727L1274.74 434.455L1266.89 438.364V500.909L1365.04 504.818L1361.11 434.455L1341.48 426.636L1337.56 414.909H1420V426.636L1404.3 434.455L1400.37 450.091V649.455L1420 653.364V669H1361.11L1341.48 665.091V653.364L1361.11 645.545L1365.04 524.364H1262.96L1266.89 645.545L1286.52 657.273V665.091L1278.67 669H1208V653.364L1223.7 645.545V434.455L1208 426.636L1211.93 411Z" fill="white"/>
<path d="M1227.91 728H1380.6L1392.34 739.723L1396.26 751.446V782.708L1380.6 774.892L1361.02 755.354L1345.36 751.446L1282.72 747.538V817.877L1361.02 813.969L1372.77 794.431H1380.6L1384.51 802.246V841.323L1380.6 864.769L1364.94 860.862L1361.02 837.415L1353.19 841.323H1282.72V966.369L1341.45 958.554L1372.77 942.923L1388.43 923.385L1404.09 919.477L1408 931.2L1396.26 950.738L1384.51 982H1224V970.277L1243.57 962.462L1247.49 751.446L1227.91 743.631V728Z" fill="white"/>
<path d="M1380.44 90H1392.18L1396.09 97.8209L1400 156.478L1384.36 152.567L1368.71 129.104L1337.42 117.373H1329.6L1325.69 332.448L1349.16 336.358L1356.98 352H1270.93V336.358L1294.4 332.448V117.373L1251.38 125.194L1243.56 144.746L1231.82 156.478H1224V125.194L1227.91 97.8209L1231.82 93.9104H1360.89L1380.44 90Z" fill="white"/>
</svg>
