<svg width="67" height="67" viewBox="0 0 67 67" fill="none" xmlns="http://www.w3.org/2000/svg">
<g opacity="0.56" clip-path="url(#clip0_3_13)">
<path fill-rule="evenodd" clip-rule="evenodd" d="M17.568 17.568C18.0915 17.0446 18.8014 16.7506 19.5417 16.7506C20.2819 16.7506 20.9919 17.0446 21.5154 17.568L35.4737 31.5263C35.9971 32.0498 36.2911 32.7597 36.2911 33.5C36.2911 34.2402 35.9971 34.9502 35.4737 35.4737L21.5154 49.432C20.9889 49.9406 20.2837 50.222 19.5517 50.2156C18.8198 50.2092 18.1196 49.9156 17.602 49.398C17.0844 48.8804 16.7908 48.1803 16.7844 47.4483C16.7781 46.7163 17.0594 46.0111 17.568 45.4846L29.5526 33.5L17.568 21.5154C17.0446 20.9919 16.7506 20.2819 16.7506 19.5417C16.7506 18.8014 17.0446 18.0915 17.568 17.568ZM34.318 17.568C34.8415 17.0446 35.5514 16.7506 36.2917 16.7506C37.0319 16.7506 37.7419 17.0446 38.2654 17.568L52.2237 31.5263C52.7471 32.0498 53.0411 32.7597 53.0411 33.5C53.0411 34.2402 52.7471 34.9502 52.2237 35.4737L38.2654 49.432C37.7389 49.9406 37.0337 50.222 36.3017 50.2156C35.5698 50.2092 34.8696 49.9156 34.352 49.398C33.8344 48.8804 33.5408 48.1803 33.5344 47.4483C33.5281 46.7163 33.8094 46.0111 34.318 45.4846L46.3026 33.5L34.318 21.5154C33.7946 20.9919 33.5006 20.2819 33.5006 19.5417C33.5006 18.8014 33.7946 18.0915 34.318 17.568Z" fill="#F8F8F8"/>
</g>
<defs>
<clipPath id="clip0_3_13">
<rect width="67" height="67" fill="white"/>
</clipPath>
</defs>
</svg>
