<svg width="3887" height="1555" viewBox="0 0 3887 1555" fill="none" xmlns="http://www.w3.org/2000/svg">
<path d="M540.916 533.433H632.018L637.711 542.118L654.793 599.444L704.14 734.94L715.527 762.734L738.303 825.271L743.997 811.374L793.343 668.929L823.71 578.598L831.302 552.541L835.098 536.907L836.996 535.17H948.975L943.281 552.541L922.404 604.655L878.751 722.78L863.567 759.26L838.894 825.271L825.608 873.911L800.935 936.448L787.649 971.191L785.751 974.665H692.752L685.16 960.768L664.283 905.179L650.997 873.911L639.609 832.22L616.834 769.683L601.65 733.203L586.467 694.986L584.569 693.249L571.283 727.992L546.61 790.529L510.549 886.071L495.365 920.814L476.386 971.191L472.59 974.665H385.284L373.896 946.871L356.815 901.705L343.529 868.7L313.162 787.054L294.183 738.414L280.897 705.409L269.509 661.981L246.734 599.444L222.061 538.644V535.17H332.142L339.733 550.804L362.509 613.341L400.468 727.992L423.243 790.529L434.631 825.271L438.427 820.06L459.304 759.26L466.896 731.466L493.467 656.769L516.243 594.232L539.018 535.17L540.916 533.433Z" fill="white"/>
<path d="M2784.29 528.221H2850.72L2886.78 535.17L2919.05 545.593L2949.41 559.49L2983.58 576.861L3006.35 595.969L3021.53 611.604L3040.51 637.661L3051.9 660.243L3063.29 705.409L3067.09 724.517V780.106L3053.8 839.168L3044.31 860.014L3034.82 875.648L3019.64 894.757L2994.96 915.602L2974.09 931.236L2947.51 946.871L2917.15 960.768L2882.98 971.191L2845.03 978.139H2782.39L2750.13 972.928L2717.86 964.242L2689.39 952.082L2662.82 934.711L2643.84 920.814L2621.07 901.705L2609.68 893.019L2592.6 868.7L2577.41 840.905L2567.92 814.848L2560.33 778.369V729.729L2566.03 698.46L2577.41 667.192L2592.6 639.398L2609.68 615.078L2634.35 589.021L2655.23 573.387L2678.01 562.964L2696.99 550.804L2723.56 540.381L2759.62 531.695L2784.29 528.221ZM2791.88 615.078L2761.52 622.026L2738.74 632.449L2714.07 649.821L2696.99 667.192L2685.6 686.3L2674.21 729.729L2672.31 759.26L2676.11 783.58L2687.5 823.534L2704.58 846.117L2723.56 863.488L2750.13 879.122L2774.8 887.808L2791.88 891.282L2826.05 893.019L2850.72 889.545L2871.6 882.597L2898.17 868.7L2922.84 847.854L2939.92 825.271L2953.21 797.477L2958.9 773.157V734.94L2951.31 705.409L2936.13 677.615L2924.74 661.981L2901.96 641.135L2873.49 625.501L2856.41 618.552L2839.33 615.078H2791.88Z" fill="white"/>
<path d="M3211.33 535.17H3332.8L3346.08 552.541L3361.27 571.65L3378.35 592.495L3397.33 620.29L3418.21 649.821L3429.59 672.404H3433.39L3452.37 644.609L3505.51 571.65L3516.9 559.49L3533.98 535.17H3653.55L3642.16 550.804L3626.98 569.913L3617.49 580.335L3600.41 609.867L3585.23 628.975L3570.04 649.821L3543.47 684.563L3513.1 726.255L3496.02 743.626L3499.82 752.312L3518.8 778.369L3539.67 806.163L3589.02 872.174L3615.59 908.654L3628.88 927.762L3649.76 955.556L3659.25 967.716V971.191H3537.78L3492.23 908.654L3477.04 891.282L3444.78 846.117L3429.59 825.271L3425.8 828.746L3412.51 853.066L3399.23 870.437L3384.04 891.282L3363.17 915.602L3323.31 971.191H3205.64L3209.43 962.505L3232.21 931.237L3243.59 910.391L3264.47 887.808L3294.84 846.117L3310.02 827.009L3338.49 788.792L3363.17 755.786L3368.86 748.837L3365.06 741.889L3351.78 727.992L3332.8 701.935L3308.12 668.929L3279.66 630.712L3254.98 597.707L3236 571.65L3217.02 543.856L3211.33 535.17Z" fill="white"/>
<path d="M2175.05 528.221H2247.17L2283.23 533.433L2311.7 542.118L2351.56 561.227L2383.82 578.598L2397.11 590.758L2393.31 597.707L2372.44 620.289L2347.76 646.346L2330.68 663.718L2323.09 660.243L2306.01 644.609L2279.44 630.712L2256.66 622.026L2233.89 616.815H2186.44L2156.07 623.764L2135.19 634.186L2108.62 658.506L2095.34 675.878L2080.15 705.409L2072.56 740.152V764.471L2078.25 794.003L2087.74 816.586L2099.13 835.694L2114.31 853.065L2137.09 873.911L2167.46 886.071L2184.54 889.545L2218.7 891.282L2245.27 887.808L2279.44 877.385L2307.91 861.751L2328.78 840.905L2336.38 842.643L2393.31 894.757L2399.01 898.231L2395.21 905.179L2372.44 926.025L2345.86 943.396L2313.6 960.768L2288.93 969.453L2252.87 976.402L2239.58 978.139H2173.15L2135.19 971.191L2095.34 955.556L2064.97 939.922L2045.99 926.025L2008.03 894.757L1994.74 877.385L1977.66 847.854L1964.38 811.374L1958.68 781.843L1956.79 766.209V740.152L1962.48 703.672L1973.87 668.929L1987.15 642.872L2000.44 622.026L2019.42 599.444L2042.19 578.598L2053.58 571.65L2072.56 562.964L2099.13 549.067L2137.09 535.17L2175.05 528.221Z" fill="white"/>
<path d="M1474.71 535.17H1577.2L1579.09 536.907V886.071H1818.24V971.191H1474.71V535.17Z" fill="white"/>
<path d="M1142.57 535.17H1243.16L1245.06 536.907V969.454L1243.16 971.191H1142.57L1140.67 969.454V536.907L1142.57 535.17Z" fill="white"/>
<path d="M1493.69 1073.68H1527.85L1539.24 1078.89L1544.93 1085.84V1103.21L1539.24 1113.64L1527.85 1125.8L1506.97 1137.96L1482.3 1144.9H1450.03L1434.85 1137.96L1429.16 1132.74L1421.56 1134.48L1402.58 1150.12L1377.91 1174.44L1355.14 1202.23L1336.16 1230.02L1330.46 1247.4V1264.77L1332.36 1268.24L1351.34 1266.5L1372.22 1257.82L1391.2 1247.4L1427.26 1223.08L1450.03 1207.44L1484.2 1183.12L1512.67 1165.75L1543.03 1151.85L1552.52 1153.59L1558.22 1158.8L1556.32 1167.49L1537.34 1195.28L1516.46 1219.6L1495.58 1240.45L1476.6 1263.03L1474.71 1266.5L1499.38 1257.82L1525.95 1243.92L1571.5 1228.29L1588.58 1223.08L1598.07 1224.81L1594.28 1231.76L1567.71 1245.66L1531.64 1261.29L1505.07 1275.19L1455.73 1294.3L1446.24 1302.98L1434.85 1320.35L1423.46 1342.94L1412.07 1360.31L1370.32 1405.47L1349.44 1426.32L1336.16 1438.48L1322.87 1452.38H1319.07V1455.85L1303.89 1468.01L1283.01 1485.38L1258.34 1502.75L1226.07 1520.13L1197.61 1530.55L1188.12 1532.29H1161.54L1148.26 1525.34L1144.46 1518.39V1506.23L1152.05 1492.33L1172.93 1466.27L1191.91 1440.22L1208.99 1422.85L1224.18 1410.69L1245.05 1396.79L1271.63 1377.68L1288.71 1363.78L1322.87 1342.94L1366.52 1318.62L1391.2 1304.72L1431.05 1283.87L1436.75 1282.14L1440.54 1273.45L1459.52 1249.13L1476.6 1231.76L1495.58 1212.65L1508.87 1195.28L1512.67 1188.33L1487.99 1203.97L1465.22 1219.6L1436.75 1236.97L1404.48 1257.82L1385.5 1269.98L1355.14 1283.87L1332.36 1290.82H1320.97L1311.48 1283.87L1301.99 1266.5L1300.09 1259.56V1245.66L1307.69 1231.76L1320.97 1216.13L1336.16 1190.07L1353.24 1167.49L1372.22 1148.38L1385.5 1134.48L1410.18 1111.9L1413.97 1110.16V1092.79H1421.56L1427.26 1096.26L1438.65 1094.53L1465.22 1080.63L1493.69 1073.68ZM1486.09 1091.05L1476.6 1099.74L1467.11 1110.16L1446.24 1118.85V1124.06L1455.73 1129.27H1470.91L1501.28 1122.32L1518.36 1111.9L1525.95 1103.21L1527.85 1096.26L1518.36 1091.05H1486.09ZM1406.38 1315.14L1387.4 1327.3L1349.44 1348.15L1313.38 1368.99L1277.32 1393.31L1256.44 1410.69L1224.18 1433.27L1205.2 1448.9L1186.22 1478.43L1172.93 1495.81L1161.54 1509.7L1165.34 1516.65L1186.22 1514.91L1208.99 1506.23L1241.26 1490.59L1267.83 1473.22L1288.71 1457.59L1311.48 1438.48L1324.77 1426.32L1338.05 1412.42L1358.93 1389.84L1381.71 1358.57L1402.58 1330.78L1410.18 1320.35V1315.14H1406.38Z" fill="white"/>
<path d="M2091.54 1092.79H2106.72L2118.11 1098L2116.21 1110.16L2099.13 1125.8L2070.66 1143.17L2013.72 1174.44L2038.4 1177.91L2074.46 1181.38H2135.19L2237.68 1170.96L2328.78 1167.49L2389.52 1162.28L2465.44 1153.59L2509.09 1146.64L2537.56 1141.43L2558.44 1139.69L2564.13 1141.43L2566.03 1150.12L2562.23 1153.59L2514.78 1162.28L2442.66 1170.96L2355.35 1177.91L2271.84 1183.12L2167.46 1193.54L2144.68 1195.28H2072.56L2011.83 1190.07H1990.95L1975.76 1200.49L1956.79 1216.13L1941.6 1230.02L1916.93 1259.55L1894.15 1282.14L1869.48 1304.72L1854.3 1316.88L1835.32 1332.51H1831.52V1335.99L1816.34 1348.15L1797.36 1365.52L1772.68 1382.89H1761.3L1757.5 1375.94L1759.4 1367.26L1772.68 1353.36L1795.46 1332.51L1825.83 1311.67L1848.6 1290.82L1861.89 1276.93L1867.58 1271.71H1871.38V1268.24L1886.56 1256.08L1903.64 1236.97L1916.93 1224.81L1937.81 1198.76L1941.6 1190.07L1928.32 1184.86L1890.36 1177.91L1859.99 1174.44L1776.48 1169.22H1700.56L1656.91 1174.44L1637.93 1179.65L1624.64 1186.6L1626.54 1193.54L1643.62 1203.97L1645.52 1210.92L1643.62 1212.65L1624.64 1210.92L1594.28 1197.02L1584.79 1188.33L1586.69 1181.38L1609.46 1170.96L1645.52 1162.28L1689.17 1157.06H1782.17L1884.66 1162.28L1928.32 1169.22L1958.68 1174.44L1979.56 1162.28L2013.72 1139.69L2042.19 1117.11L2068.76 1099.74L2091.54 1092.79Z" fill="white"/>
<path d="M2662.82 1155.33H2679.9L2695.09 1160.54L2702.68 1170.96L2700.78 1181.38L2676.11 1212.65L2653.33 1228.29L2624.86 1242.18L2583.11 1261.29L2600.19 1275.19L2602.09 1282.14L2594.5 1296.04L2586.9 1306.46L2588.8 1308.19H2607.78L2634.35 1299.51H2641.94L2640.05 1306.46L2622.97 1313.41L2602.09 1316.88L2575.52 1318.62L2554.64 1335.99L2535.66 1348.15L2520.48 1353.36H2499.6L2492.01 1348.15L2490.11 1335.99L2493.9 1311.67L2473.03 1320.35L2436.97 1329.04L2425.58 1330.78H2408.5L2404.7 1325.57V1316.88L2383.82 1327.3L2353.46 1337.73L2336.38 1341.2H2309.8L2298.42 1332.51V1318.62L2309.8 1301.25L2326.89 1283.88L2345.86 1271.72L2361.05 1268.24L2362.95 1269.98V1278.66L2355.35 1287.35L2340.17 1299.51L2324.99 1313.41L2321.19 1320.35V1329.04L2323.09 1330.78H2343.97L2364.84 1323.83L2385.72 1311.67L2399.01 1301.25L2412.29 1287.35L2425.58 1280.4H2446.46V1287.35L2433.17 1299.51H2429.37L2425.58 1306.46L2419.88 1311.67V1316.88L2431.27 1318.62L2459.74 1313.41L2490.11 1301.25L2497.7 1292.56L2512.88 1264.77L2526.17 1247.4L2541.35 1236.97L2566.03 1219.6L2605.88 1183.12L2628.66 1167.49L2651.43 1157.06L2662.82 1155.33ZM2660.92 1172.7L2643.84 1177.91L2622.97 1193.54L2596.39 1216.13L2575.52 1231.76L2554.64 1250.87L2552.74 1257.82L2566.03 1256.08L2632.46 1221.34L2649.54 1209.18L2670.41 1190.07L2676.11 1181.38V1174.44L2672.31 1172.7H2660.92ZM2550.84 1276.93L2535.66 1289.09L2524.27 1301.25L2526.17 1306.46L2533.76 1309.93L2558.44 1311.67L2571.72 1297.77L2577.41 1289.09V1283.88L2560.33 1276.93H2550.84ZM2512.88 1315.14L2507.19 1322.09L2505.29 1327.3V1339.46L2507.19 1341.2H2522.37L2543.25 1329.04L2550.84 1322.09V1318.62L2524.27 1315.14H2512.88Z" fill="white"/>
<path d="M1865.68 156.475H1903.64V220.749H1970.07V158.212L1971.97 156.475H1994.74L2009.93 158.212V314.554H1970.07V252.017L1949.19 250.28H1905.54L1903.64 314.554H1863.79V158.212L1865.68 156.475Z" fill="white"/>
<path d="M2127.6 156.475H2256.66L2258.56 158.212V187.743L2254.76 189.48H2163.66L2161.76 220.749H2243.38L2247.17 224.223V246.806L2245.27 248.543L2163.66 250.28V281.548L2258.56 283.285V314.554H2127.6V156.475Z" fill="white"/>
<path d="M2402.8 232.908H3710.49L3712.39 241.594L3710.49 243.331H2402.8L2400.91 234.645L2402.8 232.908Z" fill="white"/>
<path d="M222.06 232.908H1522.16L1524.05 241.594L1522.16 243.331H223.958L220.162 236.382L222.06 232.908Z" fill="white"/>
<path d="M1748.01 1238.71H1759.4L1765.09 1243.92L1757.5 1261.29L1744.22 1273.45L1736.62 1278.66L1730.93 1296.03V1325.57L1729.03 1334.25L1748.01 1329.04L1770.79 1316.88L1784.07 1308.19L1791.66 1309.93L1789.77 1315.14L1755.6 1337.73L1732.83 1348.15L1717.64 1351.62L1713.85 1360.31L1700.56 1374.21L1692.97 1379.42L1672.09 1384.63H1658.81L1655.01 1382.89V1372.47L1662.6 1363.78L1687.28 1349.89L1711.95 1339.46L1715.75 1329.04L1719.54 1292.56L1698.66 1304.72L1672.09 1320.35L1655.01 1327.3H1632.24L1613.26 1320.35L1605.67 1318.62L1584.79 1332.51L1567.71 1342.94L1562.01 1344.67H1543.03L1529.75 1339.46L1522.16 1330.78L1524.05 1320.35L1543.03 1299.51H1546.83V1296.03H1550.62L1554.42 1289.09L1567.71 1276.93L1588.58 1261.29L1599.97 1256.08H1615.15L1626.54 1261.29L1639.83 1259.55L1651.22 1254.34L1664.5 1256.08V1263.03L1651.22 1278.66L1639.83 1292.56L1637.93 1299.51L1643.62 1311.67L1647.42 1313.41H1660.71L1677.79 1304.72L1704.36 1283.87L1717.64 1271.71L1732.83 1259.55L1744.22 1242.18L1748.01 1238.71ZM1605.67 1271.71L1584.79 1285.61L1560.11 1308.19L1554.42 1315.14L1556.32 1323.83L1560.11 1327.3L1569.6 1325.57L1588.58 1311.67L1611.36 1292.56L1622.75 1276.93L1620.85 1273.45L1605.67 1271.71Z" fill="white"/>
<path d="M2247.17 1259.55H2268.05L2277.54 1264.77L2283.23 1271.71L2285.13 1278.66V1290.82L2279.44 1308.19L2268.05 1325.57L2252.87 1339.46L2228.19 1353.36L2207.31 1360.31L2188.34 1362.05L2180.74 1358.57L2178.85 1351.62L2192.13 1337.73H2197.83L2203.52 1344.67L2216.8 1342.94L2237.68 1332.51L2258.56 1313.41L2269.95 1292.56V1289.09L2262.36 1287.35H2233.89L2218.7 1296.03L2203.52 1309.93L2190.23 1323.83L2156.07 1346.41L2138.99 1360.31H2135.19L2131.4 1367.26L2108.62 1388.1L2091.54 1400.26L2076.36 1419.37L2057.38 1436.74L2044.09 1445.43V1462.8L2028.91 1476.7L2009.93 1485.38L1992.85 1488.86L1975.77 1487.12L1973.87 1483.65L1987.15 1469.75L2008.03 1448.9L2015.62 1440.22H2019.42L2023.21 1433.27L2040.3 1417.63L2055.48 1405.47L2082.05 1386.37L2099.13 1374.21L2118.11 1358.57L2138.99 1334.25L2161.76 1316.88L2180.74 1302.98L2209.21 1276.93L2226.29 1266.5L2247.17 1259.55Z" fill="white"/>
<path d="M1617.05 156.475H1759.4V189.48L1711.95 191.217L1710.05 314.554H1670.2V189.48H1617.05V156.475Z" fill="white"/>
<path d="M1975.77 1256.08L1989.05 1259.55L1992.85 1263.03V1276.93L1987.15 1289.09L1966.28 1322.09L1962.48 1330.78L1996.64 1323.83L2027.01 1309.93L2040.3 1302.98L2049.79 1289.09L2061.17 1282.14L2095.34 1271.71L2102.93 1269.98H2116.21L2121.91 1273.45L2129.5 1271.71L2142.78 1269.98L2144.68 1271.71V1285.61L2138.99 1304.72L2167.46 1296.03H2173.15L2171.25 1302.98L2163.66 1308.19L2131.4 1316.88L2112.42 1332.51L2099.13 1344.67L2068.76 1358.57L2047.89 1365.52L2038.4 1367.26H2023.21L2013.72 1360.31L2011.83 1356.83V1344.67L2023.21 1323.83L2000.44 1334.25L1934.01 1353.36L1926.42 1348.15L1928.32 1339.46L1937.81 1325.57L1949.19 1306.46L1960.58 1289.09L1943.5 1285.61L1939.7 1292.56L1918.83 1311.67L1903.64 1320.35H1894.15L1896.05 1313.41L1916.93 1299.51L1934.01 1285.61L1945.4 1271.71L1958.68 1261.29L1975.77 1256.08ZM2093.44 1287.35L2076.36 1296.03L2057.38 1311.67L2040.3 1332.51L2036.5 1341.2L2038.4 1348.15L2040.3 1349.89H2053.58L2082.05 1341.2L2101.03 1330.78L2114.32 1316.88L2120.01 1306.46L2118.11 1299.51L2106.72 1290.82L2093.44 1287.35Z" fill="white"/>
<path d="M223.958 1264.77H1083.73L1115.99 1266.5L1114.1 1275.19H223.958L222.061 1266.5L223.958 1264.77Z" fill="white"/>
<path d="M2822.25 1264.77H3680.12L3712.39 1266.5L3710.49 1275.19H2820.35L2818.45 1266.5L2822.25 1264.77Z" fill="white"/>
</svg>
