<svg width="3397" height="1553" viewBox="0 0 3397 1553" fill="none" xmlns="http://www.w3.org/2000/svg">
<path d="M1015.12 569.118H1058.25L1084.78 575.754L1111.32 589.027L1127.91 602.299L1142.84 618.89L1151.13 637.139V667.002L1141.18 701.842L1129.57 735.023L1108.01 789.772L1089.76 832.908L1101.37 836.226H1117.96L1144.5 829.589L1171.04 816.317L1192.6 798.067L1209.19 781.477L1224.11 763.227L1247.34 733.364L1267.24 705.16L1283.83 683.593L1290.46 675.298L1307.05 663.684L1325.29 658.707L1360.13 660.366L1376.71 667.002L1383.35 678.616V696.865L1375.06 720.092L1358.47 751.614L1340.22 781.477L1320.32 811.34L1298.76 844.521L1278.85 879.361L1260.61 917.519L1244.02 960.655L1245.68 962.314L1257.29 950.7L1272.22 932.451L1290.46 909.224L1312.03 879.361L1330.27 852.816L1353.49 819.635L1370.08 796.408L1386.67 774.841L1404.91 753.273L1419.84 735.023L1459.65 695.206L1482.87 676.957L1499.46 665.343L1526 652.071L1549.22 645.435H1572.44L1587.37 650.412L1595.66 658.707L1600.64 670.32V686.911L1594 713.456L1580.73 743.319L1560.83 773.182L1540.92 804.704L1519.36 841.203L1499.46 877.702L1479.55 917.519L1464.62 950.7L1471.26 949.041L1492.82 932.451L1534.29 890.974L1545.9 877.702L1567.46 854.475L1582.39 836.226L1602.3 814.658L1617.22 796.408L1632.15 779.818L1647.08 761.568L1668.64 736.682L1683.57 718.433L1696.84 701.842L1716.75 675.298L1730.02 650.412L1743.29 640.457L1763.19 633.821L1771.48 632.162H1807.97L1834.51 640.457L1862.71 653.73L1867.69 657.048L1864.37 663.684L1846.12 686.911L1822.9 715.115L1783.09 768.204L1761.53 798.067L1744.94 822.953L1721.72 859.452L1698.5 900.929L1680.25 942.405L1673.62 965.632V975.586L1678.6 980.563L1695.18 977.245L1718.4 963.973L1741.63 945.723L1766.51 924.155L1791.39 900.929L1842.81 849.498L1854.42 836.226L1869.35 821.294L1880.96 808.022L1905.84 781.477L1925.74 759.909L1940.67 743.319L1958.92 723.41L1977.16 701.842L1988.77 688.57L2000.38 676.957L2018.63 665.343L2041.85 658.707H2066.73L2084.98 663.684L2093.27 671.979L2096.59 676.957V695.206L2086.63 720.092L2063.41 756.591L2041.85 786.454L2023.6 809.681L1998.72 842.862L1980.48 871.066L1967.21 894.292L1948.96 929.133L1937.35 957.337L1977.16 917.519L1992.09 899.27L2013.65 874.384L2035.21 846.18L2053.46 824.612L2066.73 808.022L2081.66 789.772L2099.9 769.864L2126.44 741.66L2146.35 723.41L2169.57 703.501L2197.77 683.593L2229.28 667.002L2250.84 660.366L2259.14 658.707H2282.36L2298.95 663.684L2310.56 673.638L2313.88 683.593V698.524L2307.24 723.41L2290.65 756.591L2275.73 774.841L2232.6 834.567L2207.72 872.725L2192.79 897.611L2177.86 924.155L2157.96 958.996L2177.86 949.041L2196.11 934.11L2219.33 914.201L2225.96 907.565H2229.28V904.247L2242.55 892.633L2267.43 867.748L2280.7 856.134L2318.85 817.976L2330.46 804.704L2373.59 761.568L2385.2 748.296L2401.79 731.705L2413.4 718.433L2431.64 696.865L2438.28 686.911L2441.59 678.616L2456.52 667.002L2471.45 662.025L2481.4 660.366H2512.92L2539.46 667.002L2570.97 683.593L2580.92 690.229L2579.27 696.865L2564.34 711.797L2552.73 725.069L2531.16 748.296L2519.55 761.568L2479.74 808.022L2461.5 831.248L2441.59 856.134L2421.69 884.338L2405.1 909.224L2388.52 937.428L2375.25 963.973L2366.95 987.199V1000.47L2383.54 998.813L2401.79 992.177L2421.69 980.563L2448.23 958.996L2464.82 945.723L2511.26 905.906L2529.5 889.315L2542.77 877.702L2559.36 862.77L2572.63 851.157L2597.51 827.93L2619.07 808.022L2678.79 748.296L2690.4 735.023L2702.01 720.092L2713.62 703.501L2725.23 688.57H2728.55L2731.87 681.934L2750.11 665.343L2773.33 652.071L2791.58 645.435L2803.19 643.776H2818.12L2836.36 647.094L2846.31 653.73L2849.63 658.707L2847.97 670.32L2834.7 688.57L2816.46 710.138L2798.21 733.364L2776.65 759.909L2740.16 806.363L2720.25 831.248L2697.03 862.77L2677.13 889.315L2650.59 927.474L2629.03 963.973L2615.76 990.518L2609.12 1012.09L2610.78 1023.7L2612.44 1025.36H2625.71L2645.61 1013.74L2665.52 998.813L2683.76 983.881L2706.98 963.973L2725.23 947.382L2738.5 935.769L2763.38 912.542L2776.65 900.929L2791.58 885.997L2804.85 874.384L2823.09 856.134L2838.02 837.885L2857.93 814.658L2872.85 796.408L2887.78 779.818L2902.71 761.568L2917.64 744.978L2932.57 726.728L2952.47 705.16L2967.4 686.911L2987.3 665.343L2998.91 652.071L3013.84 638.798L3037.06 627.185L3051.99 623.867H3085.17L3108.39 628.844L3116.68 635.48L3118.34 647.094L3110.05 662.025L3086.83 686.911L3063.6 710.138L3050.33 721.751L3038.72 733.364H3035.41V736.682L3022.14 748.296L3000.57 768.204L2983.99 783.136L2969.06 801.386L2952.47 821.294L2929.25 852.816L2909.35 881.02L2869.54 940.746L2851.29 968.95L2828.07 1005.45L2803.19 1048.58L2784.94 1080.11L2761.72 1119.92L2746.79 1146.47L2761.72 1144.81L2824.75 1141.49H2877.83L2907.69 1146.47L2932.57 1154.76L2945.84 1166.38L2947.5 1169.7V1182.97L2939.2 1196.24L2927.59 1206.19L2922.61 1209.51L2912.66 1211.17H2896.08L2857.93 1201.22L2823.09 1194.58H2770.02L2723.57 1197.9L2720.25 1206.19L2700.35 1244.35L2680.45 1280.85L2657.22 1317.35L2637.32 1345.55L2615.76 1373.76L2597.51 1395.33L2585.9 1408.6L2561.02 1435.14L2541.12 1453.39L2514.58 1474.96L2488.04 1493.21L2463.16 1508.14L2421.69 1528.05L2386.86 1539.66L2350.37 1547.96L2305.58 1552.94H2265.77L2235.92 1549.62L2209.38 1542.98L2182.84 1529.71L2167.91 1518.1L2154.64 1503.16L2143.03 1483.26L2138.05 1465.01V1436.8L2144.69 1410.26L2157.96 1382.05L2174.54 1358.83L2189.47 1342.24L2211.04 1320.67L2239.23 1299.1L2267.43 1280.85L2297.29 1264.26L2323.83 1250.99L2355.34 1236.06L2415.06 1212.83L2473.11 1192.92L2519.55 1179.65L2579.27 1166.38L2635.66 1158.08L2662.2 1154.76L2680.45 1123.24L2706.98 1075.13L2721.91 1046.93L2735.18 1015.4L2728.55 1018.72L2698.69 1040.29L2673.81 1056.88L2647.27 1068.49L2622.39 1075.13L2609.12 1076.79H2587.56L2559.36 1071.81L2536.14 1060.2L2524.53 1046.93L2519.55 1033.65V1002.13L2526.19 977.245L2532.82 962.314L2511.26 980.563L2489.7 997.154L2461.5 1017.06L2428.32 1036.97L2403.44 1048.58L2378.56 1056.88L2361.98 1060.2H2330.46L2312.22 1055.22L2297.29 1046.93L2287.34 1031.99L2284.02 1022.04V995.495L2292.31 963.973L2305.58 932.451L2322.17 904.247L2313.88 910.883L2288.99 934.11L2272.41 950.7L2259.14 962.314L2237.58 982.222L2219.33 997.154L2191.13 1018.72L2162.93 1035.31L2138.05 1045.27L2121.47 1048.58H2096.59L2081.66 1045.27L2068.39 1036.97L2061.75 1028.68L2060.1 1023.7V1002.13L2066.73 980.563L2080 955.677L2104.88 915.86L2126.44 881.02L2149.66 844.521L2174.54 804.704L2192.79 776.5L2199.43 764.886L2176.2 789.772L2161.28 808.022L2138.05 832.908L2123.13 851.157L2101.56 874.384L2086.63 892.633L2068.39 912.542L2053.46 930.792L2036.87 949.041L2021.95 967.291L2010.33 980.563L1997.06 992.177L1975.5 1012.09L1948.96 1031.99L1922.42 1046.93L1895.88 1056.88L1869.35 1060.2L1851.1 1056.88L1837.83 1045.27L1834.51 1036.97V1008.77L1841.15 983.881L1854.42 950.7L1880.96 897.611L1892.57 877.702L1880.96 887.656L1842.81 925.815L1834.51 932.451L1809.63 957.337L1791.39 972.268L1778.12 983.881L1751.58 1003.79L1718.4 1023.7L1695.18 1033.65L1671.96 1040.29L1660.35 1041.95H1638.79L1618.88 1036.97L1605.61 1028.68L1595.66 1015.4L1592.34 1003.79V972.268L1598.98 944.064L1608.93 915.86L1622.2 887.656L1600.64 909.224L1589.03 922.496L1569.12 944.064L1516.04 997.154L1492.82 1015.4L1469.6 1030.33L1444.72 1041.95L1431.45 1045.27H1396.62L1380.03 1038.63L1371.74 1028.68L1368.42 1018.72V1000.47L1376.71 972.268L1389.98 945.723L1419.84 889.315L1444.72 842.862L1467.94 799.726L1484.53 769.864L1491.16 756.591L1469.6 783.136L1449.7 809.681L1426.48 839.544L1401.59 872.725L1378.37 902.588L1323.64 975.586L1308.71 992.177L1297.1 1005.45L1280.51 1022.04L1262.26 1036.97L1239.04 1053.56L1212.5 1066.83L1194.26 1071.81H1166.06L1152.79 1065.17L1146.16 1055.22L1142.84 1036.97L1146.16 1008.77L1156.11 973.927L1172.7 934.11L1190.94 892.633L1212.5 849.498L1177.67 872.725L1152.79 885.997L1117.96 897.611L1093.08 900.929L1071.52 899.27L1059.9 895.952L1051.61 897.611L1018.44 947.382L1000.19 967.291L985.263 985.54L958.724 1013.74L947.113 1027.02L928.868 1045.27L902.329 1063.52L874.131 1078.45L855.885 1085.08L829.346 1090.06H796.172L776.268 1085.08L761.34 1075.13L749.729 1061.86L743.094 1046.93L741.436 1038.63V995.495L749.729 954.018L766.316 904.247L787.879 852.816L804.466 817.976L821.053 788.113L844.274 753.273L860.861 731.705L869.155 703.501L885.742 681.934L894.035 675.298L920.574 635.48L935.502 617.231L950.431 600.64L970.335 585.709L993.557 574.095L1015.12 569.118ZM1035.02 638.798L1023.41 642.116L1006.83 657.048L990.239 675.298L967.018 706.82L937.161 751.614L918.916 779.818L899.011 812.999L879.107 847.839L864.179 876.043L847.592 914.201L832.664 958.996L827.688 983.881V1007.11L832.664 1020.38L845.933 1028.68H857.544L872.472 1018.72L905.646 985.54L917.257 972.268L933.844 954.018L948.772 935.769L970.335 907.565L983.604 884.338L993.557 852.816L1010.14 768.204L1025.07 723.41L1038.34 696.865L1054.93 667.002L1056.59 662.025V648.753L1048.29 640.457L1035.02 638.798ZM2620.73 1211.17L2567.65 1219.47L2504.62 1234.4L2463.16 1247.67L2418.37 1264.26L2370.27 1285.83L2330.46 1307.4L2305.58 1323.99L2284.02 1340.58L2262.46 1360.49L2245.87 1378.74L2229.28 1403.62L2220.99 1423.53L2217.67 1441.78L2220.99 1463.35L2229.28 1479.94L2242.55 1491.55L2257.48 1498.19L2280.7 1501.51L2315.53 1499.85L2353.68 1491.55L2386.86 1478.28L2418.37 1461.69L2438.28 1448.42L2458.18 1433.48L2476.43 1418.55L2497.99 1398.64L2516.24 1382.05L2527.85 1368.78L2546.09 1348.87L2567.65 1320.67L2590.88 1285.83L2607.46 1257.63L2634 1214.49V1211.17H2620.73Z" fill="white"/>
<path d="M1565.8 0.0632324H1657.03L1678.6 5.04039L1688.55 11.6766L1693.52 18.3128L1695.18 31.5852L1688.55 48.1758L1678.6 64.7663L1670.3 73.0616L1657.03 84.6749L1638.79 92.9702L1620.54 97.9473L1603.95 99.6064L1522.68 101.265L1448.04 104.584L1317 112.879L1215.82 121.174L1093.08 132.787L1011.8 142.742L998.532 146.06L973.652 189.195L950.43 230.672L927.208 273.807L902.328 321.919L865.837 394.918L844.274 441.371L816.076 502.756L787.878 567.459L764.657 622.208L738.118 686.911L718.213 736.683L690.016 809.681L665.135 876.043L638.596 949.041L610.398 1030.33L587.177 1098.36L567.272 1158.08L542.392 1237.72L535.757 1250.99L524.146 1264.26L515.853 1269.24L509.218 1270.9H489.314L472.727 1264.26L457.799 1252.65L446.188 1239.38L437.895 1222.79L434.577 1211.17V1189.6L442.871 1149.79L459.458 1091.72L484.338 1015.4L502.583 963.973L525.805 899.27L550.686 832.908L580.542 754.932L603.764 695.206L622.009 648.753L665.135 540.914L690.016 479.529L709.92 431.417L738.118 363.396L766.315 297.034L787.878 247.262L806.124 207.445L816.076 187.536L814.417 177.582H782.902L719.872 184.218L628.644 197.491L534.099 214.081L434.577 233.99L354.96 252.239L298.564 267.171L253.78 280.443L194.067 300.352L152.6 318.601L129.378 331.874L114.45 343.487L104.498 355.101L102.839 358.419V371.691L111.132 378.327L127.719 383.304L140.989 384.963H177.48L232.217 379.986L301.882 370.032L374.864 356.76L447.847 340.169L507.56 325.238L585.518 303.67L645.231 285.42L728.166 258.875H731.483L728.166 265.512L711.579 280.443L694.992 297.034L681.722 308.647L665.135 323.579L641.914 341.828L623.668 356.76L603.764 370.032L578.883 384.963L549.027 398.236L447.847 428.099L356.619 452.985L295.247 467.916L230.558 481.189L175.821 489.484L136.013 492.802H106.156L76.2998 489.484L51.4194 482.848L31.5151 472.893L14.9282 457.962L6.63477 444.689L1.65869 429.758L0 421.463V389.941L6.63477 356.76L19.9043 320.26L36.4912 290.397L58.0542 263.853L76.2998 245.603L97.8628 229.013L119.426 215.74L150.941 199.15L175.821 189.195L305.199 157.673L399.745 136.106L482.679 117.856L568.931 101.265L666.794 84.6749L754.705 71.4025L865.837 56.471L975.311 43.1986L1086.44 31.5852L1207.53 19.9719L1340.22 10.0175L1433.11 5.04039L1565.8 0.0632324Z" fill="white"/>
<path d="M3317.38 655.389H3335.63L3363.83 660.366L3380.41 667.003L3388.71 676.957V691.888L3375.44 710.138L3352.22 731.706L3338.95 743.319L3327.33 754.932L3314.07 776.5L3300.8 803.045L3287.53 836.226L3272.6 881.02L3259.33 927.474L3242.74 975.586L3227.81 1008.77L3212.89 1031.99L3196.3 1053.56L3176.39 1075.13L3156.49 1093.38L3131.61 1109.97L3105.07 1123.24L3080.19 1129.88L3056.97 1133.2H3033.75L3008.87 1129.88L2988.96 1123.24L2972.38 1113.29L2964.08 1106.65L2952.47 1088.4L2949.15 1078.45V1056.88L2959.11 1036.97L2970.72 1023.7L2985.64 1013.74L2995.6 1010.43H3010.52L3017.16 1015.4L3018.82 1023.7L3012.18 1040.29L3010.52 1043.61V1058.54L3015.5 1071.81L3022.14 1076.79L3027.11 1078.45H3050.33L3070.24 1071.81L3086.82 1061.86L3108.39 1043.61L3123.32 1025.36L3138.24 1003.79L3153.17 975.586L3171.42 929.133L3189.66 874.384L3192.98 854.475L3171.42 874.384L3153.17 889.316L3131.61 907.565L3101.75 929.133L3075.21 944.064L3056.97 950.701H3042.04L3015.5 944.064L3025.45 932.451L3035.41 922.497H3038.72L3042.04 915.86L3055.31 904.247L3076.87 882.679L3090.14 871.066L3194.64 766.546L3206.25 753.273L3226.15 731.706L3241.08 713.456L3264.3 683.593L3277.57 670.321L3300.8 658.707L3317.38 655.389Z" fill="white"/>
<path d="M3337.29 525.983H3368.8L3378.75 529.301L3380.41 530.96V539.255L3367.14 555.846L3332.31 590.686L3319.04 602.299L3299.14 620.549L3280.89 635.48L3257.67 657.048L3244.4 668.661L3222.84 688.57L3209.57 700.183L3184.69 723.41L3164.78 741.66L3143.22 763.227L3129.95 769.864L3120 771.523H3106.73L3090.14 768.205L3081.85 759.909L3083.51 746.637L3095.12 731.705L3115.02 713.456L3143.22 686.911L3159.81 671.98L3186.35 647.094L3202.93 632.162L3227.81 608.936L3241.08 597.322L3269.28 570.777L3282.55 559.164L3305.77 537.596L3324.02 529.301L3337.29 525.983Z" fill="white"/>
</svg>
